<svg id="Слой_1" data-name="Слой 1" xmlns="http://www.w3.org/2000/svg" width="784.8" height="172.9" viewBox="0 0 784.8 172.9"><title>plusesBack_2</title><g style="opacity:0.05000000074505806"><path d="M187.43,35.6h-4.3v108h4.3Z" transform="translate(-0.92 -0.1)" style="fill:#005078"/><path d="M147.82,35.6h-4.3v108h4.3Z" transform="translate(-0.92 -0.1)" style="fill:#005078"/><path d="M90.42,40.3h-4.3V143.6h4.3Z" transform="translate(-0.92 -0.1)" style="fill:#005078"/><path d="M122.93,40.3h-4.3v97h4.3Z" transform="translate(-0.92 -0.1)" style="fill:#005078"/><path d="M213,145.4h-15.8v9h-8.9v-7.2h-11v-3.5h-21.1v4.8h-4.7l-3.7,3.7h-13.1v-3.1H128v-6h-12.7v-5h-12.1v7.3h-9.3l-5.3,3.7H76.72v-4.3L73,138.1H57.62v6.7h-3.3v9.7h-5.9V142.8h-9V120.9h5.3v-4h3.1l2.7-2.7h31.7v4.9H62.52v1.8h19.8v25.4h1.8V34.5h7.8l2.7-2.7h6.7v2.7h12.9V32.7h-11.1V30.1h-9.3l-2.7,2.7h-8.9v79.7H49.82l-2.7,2.7h-4.2v4h-3.5v-4H5.92v25.9h1.8v-7.8h6.1v-1.8H7.72v-3.9h6.1v-1.8H7.72v-3.9h6.1v-1.8H7.72v-3.2h29.9v27.7h9v9.9H7.72v-7.9l7.8-4.5,8.1,4.5v4.9h10.9v-1.8h-9.1v-4.1l-9.9-5.5-9.6,5.3v9.5l-5,5v13h1.8V160.6l4.5-4.5h47.1v10h-34v6.7h1.8v-4.9h112.8v4.9h1.8v-6.7H105V139.7h8.5v5h12.7v6h6.7v10.1h1.8V158h17.5v6.8h7.5l2,2v6h1.8v-6.7l-3-3H154v-6.8h-19.3v-2.4h13.9l3.7-3.7h11.6v7.9h8.5v4h16.7v-1.8h-14.9v-4h-8.5v-7.9H158v-2.9h17.5V149h11v7.2h10.7v10h-29v6.7H170V168h29V147.2h6.3V173h1.8V147.2h4.1V168h16.7v4.9h1.8v-6.7H213ZM56,146.5h3.3v-6.7h12.6l3,5.3v21H56Zm20.7,19.7V150.8h12.4l5.3-3.7h8.8v19H76.72Z" transform="translate(-0.92 -0.1)" style="fill:#005078"/><path d="M558.42,66.4h-25.3v1.8h25.3Z" transform="translate(-0.92 -0.1)" style="fill:#005078"/><path d="M716,138.1V126.4H704v-3h-11.5v3h-12.2v-4H668v-4h-23.5v4h-16v4h-8.2v-4h-20.1v4.3h-5.9V113.9h5v-2.3h8.9v4h16.1v-2h16.6v2h9.6v-4H654v4.1h1.8v-4.1h6.9v4.1h1.8v-4.1h6.9v4.1h1.8v-4.1h6.9v4.1h1.8v-4.1h7.4l4.2,4.2h8.4v-4.2h8.2v7.8h1.8V109.1h5.8v-1.8h-5.8v-2.9h5.8v-1.8h-5.8V99.8h16v13.6h-10.1v1.8h25.6l2.7,2.7h7.8v3.5h-6.3v3.5h-10.4v-3.5H720v1.8h15.4v3.5h14v-3.5h26.1v-1.8h-19.7V97h16.7V94.8h8.9v39.8h1.8V93.1h-12.5v2.2h-16.8v6.5h-1.4l-3.2-3.2V92.1h-1.8v6h-37.4v11.8h-10v4.2h-5.9l-4.2-4.2h-41.4v4h-6v-2h-20.1v2H610v-4h-12.5v2.3h-3.2v-9.8h-3.7l-3.8-3.8h-20.3v3.3h-8.2V71.1h-25.1v22h-16.8v1.8h3.4v2.2h-10.3v16.7h-59.9V98.4h-11.5l-4.3-4.3h-22.4v1.8h3.4v2.5h-8.7v7.7h-8.2v2.5h-8.4v3.5h-4.4v3.3h-14.9l-2.8-57h-5.7l-2.8,57h-11.2V96.7h-17v-6h-20.1v5.7h-8v12.2h-15.7v3.8h-2.3v6.3h-2.2V98.4h-16.3V69.9h2.7V64.1h-16.1v3h-5.2V63.8h-3.3V58.5h-9.3V54.1h-2v4.4h-10.7v5.6h-4.7v4.3h-6.6V87.9h2.3V139H215V87.9h3.4V86.1h-5.8V82.4h8.9v63h-3.1v1.8H232l8.8,8.8h4.3v4.5h9.3V168h78v4.9h1.8v-6.7h-13.3V98.5h25v57.7h8.7v2h9.3v8h-24.7v6.7H341V168h44.2v4.9H387v-6.7h-9v-7.5h-2.7v-2.5h24.6v6.4h1.8v-8.2h-28.1v6.1h2.7v5.7h-10.5v-9.8h-9.3v-2h-8.7V117.2h37.5v27.4h1.8V113.8h4.4v-3.5h8.4v-2.5h6.4v50.1h1.8V100.1h15.6v34.4h9.7V100.1h14.5v66h-9.4v-3.5h5.4v-1.8h-5.4v-6h5.4v-1.7h-5.4v-6h5.4v-1.8h-5.4v-6h5.4v-1.8h-5.4v-6h5.4v-1.8h-5.4v-6h5.4v-1.8h-5.4v-6h5.4v-1.8h-5.4v-6h5.4v-2h-5.4v-2.6h-1.8v62.8h-43.6v1.8h216v-1.8H592v-8.9h-1.8v8.9h-3v-8.9h-1.8v8.9h-3v-8.9h-1.8v8.9h-3v-8.9h-1.8v8.9h-3v-8.9h-1.9v8.9h-18.2v-13h4.9v6h9.5v-3.5l3.8-3.8h19.6l5.3,5.3V163h13.4v-1.9h-11.6v-4.6l-6.4-6.4h-6.1V128.9h3.7v-4.7h3.9v4.3h9.5v-4.3h16.5v4h11.8v-4h16v-4h19.9v4h12.3v4h15.8v-3h7.9v3h12v9.9h-102V173h1.8V139.9h169.7V173h1.8V138.1Zm16.9-38.3v9.3h1.8V99.8h13.4l3.7,3.7h2.1v12.6h-7.1l-2.7-2.7h-14.5V99.8Zm-452.3.4v20.3h5.8v-6.3h2.3v-3.8h13.9v40.2h-3.1l-3.9-3.9h-10.3l-7.8,7.8h-11.4V100.3h14.5Zm-59-23.4h-8.9V74.9h8.9Zm-8.9,3.8V78.7h8.9v1.9ZM247,158.7v-4.5h-5.4l-8.8-8.8h-1.1V66h-1.8v79.4h-6.5V69.5h-1.8v3.6h-8.9V70.2h6.7V65.9h4.7V60.2h18.2v5.3h3.3v3.3h8.8v-3h12.5v2.3h-2.7v5h-5.5v1.8h5.5v3.9h-5.5v1.8h5.5v3.9h-5.5v1.8h5.5v3.9h-5.5v1.9h5.5v4h-5.5v1.8h5.5v3.9h-5.5v1.8h5.5v3.9h-5.5v1.8h5.5v3.9h-5.5V115h5.5v3.9h-5.5v1.8h5.5v3.9h-5.5v1.8h5.5v3.9h-5.5v1.8h5.5V136h-5.5v1.8h5.5v3.9h-5.5v1.8h5.5v3.9h-5.5v1.8h5.5v6.6h6v10h-13.9v-7.5H247Zm72.1-62v69.5h-47v-10h6.1l7.8-7.8h8.8l3.9,3.9h3.9v8.9h1.8v-63h8V92.5h16.5v4.2Zm48.8,7h-6.6l.7-15h5.1Zm-2.1-43.5,1.3,26.7h-4.9l1.3-26.7Zm-4.6,45.3H368l.5,9.9h-7.8Zm55.5-9.6h16.4l2.5,2.5h-18.9Zm8.7,36.9V117.3h6.1v15.5Zm6.2-17.3h-6.1V100.2h6.1Zm90.1-20.6h16.4l2.2,2.2h-18.6Zm4,4v7.2h-3.8v1.8h3.8v3.9h-3.8v1.8h3.8v3.9h-3.8v1.8h3.8v3.9h-3.8V125h3.8v3.9h-3.8v1.8h3.8v3.9h-3.8v1.8h3.8v3.9h-3.8v1.8h3.8V146h-3.8v1.8h3.8v3.9h-3.8v1.8h3.8v3.9h-3.8v1.8h3.8v6.6h-14.4V98.9Zm-16.1,16.6v32.9h-5.2v-11h-32v-3.7h-8.8v3.7h-13.9V115.5Zm-59.9,23.7h15.7v-3.7h5.2v3.7h32v11h7v16h-11.5v-5h-1.8v5h-4.9v-5h-1.8v5h-4.9v-5h-1.8v5H478v-5h-1.8v5h-4.9v-5h-1.8v5h-4.9v-5h-1.7v5H458v-5h-1.8v5h-6.5Zm91.8,27v-6.6h4.9v-1.8h-4.9v-3.9h4.9v-1.8h-4.9v-4h4.9v-1.8h-4.9v-3.9h4.9v-1.8h-4.9v-3.9h4.9v-1.8h-4.9V131h4.9v-1.9h-4.9v-4h4.9v-1.8h-4.9v-3.9h4.9v-1.8h-4.9v-3.9h4.9v-1.8h-4.9V108h4.9v-1.9h-4.9v-2.6h-1.8v62.8h-12.2V98.9h23.4v67.4h-9.4Zm45.4-43.8v4.7h-3.7v23h-13.1l-4.9,4.9v2.5h-5.9v-6h-6.7V97.1h-9.9l-4-4h-3.8V72.9h4.2V89.3h1.8V72.9h2.9V89.3h1.8V72.9h2.9V89.3h1.8V72.9h6.2v30.7h11.8v-3.3H586l3.8,3.8h2.6v18.4h-5.5Z" transform="translate(-0.92 -0.1)" style="fill:#005078"/><path d="M108,27h19V25.2H108v-1h21.2v6.2h-2.7v2.3h-7.6v1.8h7.6V137.3h1.8V32.2h9.2V146.3h1.8V31.3a4.8,4.8,0,0,1,4.8-4.8h7.3a4.8,4.8,0,0,1,4.8,4.8v.9h22.1v-.9a3.8,3.8,0,0,1,3.8-3.8h5a3.8,3.8,0,0,1,3.8,3.8v.9h16.3V141H209V30.4h-16.4a5.6,5.6,0,0,0-5.5-4.7h-1.4V19.4h-2.9L175,11,173.32.1,171.62,11l-7.8,8.4h-2.9v8.5h1.8V24h19V22.2h-19v-1h21.2v4.5h-1.8a5.51,5.51,0,0,0-5.5,4.7h-18.7a6.58,6.58,0,0,0-6.5-5.7h-7.3a6.58,6.58,0,0,0-6.5,5.7H131v-8h-2.9l-7.8-8.4-1.7-10.9L116.92,14l-7.8,8.4h-2.9v7.5H108Zm72.3-7.6h-6.1V12.8Zm-7.9-6.6v6.6h-6.1Zm-52.9,9.6V15.8l6.1,6.6Zm-1.8-6.6v6.6h-6.1Z" transform="translate(-0.92 -0.1)" style="fill:#005078"/><path d="M112.32,39.3H97.12v8h15.2Z" transform="translate(-0.92 -0.1)" style="fill:#005078"/><path d="M175.92,39.3h-20.5v7H162V57h7.2V46.3h6.7Z" transform="translate(-0.92 -0.1)" style="fill:#005078"/><path d="M102.82,55.7h-5.7v1.8h5.7Z" transform="translate(-0.92 -0.1)" style="fill:#005078"/><path d="M112.42,55.7h-5.7v1.8h5.7Z" transform="translate(-0.92 -0.1)" style="fill:#005078"/><path d="M102.82,65.1h-5.7v1.8h5.7Z" transform="translate(-0.92 -0.1)" style="fill:#005078"/><path d="M112.42,65.1h-5.7v1.8h5.7Z" transform="translate(-0.92 -0.1)" style="fill:#005078"/><path d="M102.82,74.4h-5.7v1.8h5.7Z" transform="translate(-0.92 -0.1)" style="fill:#005078"/><path d="M112.42,74.4h-5.7v1.8h5.7Z" transform="translate(-0.92 -0.1)" style="fill:#005078"/><path d="M102.82,83.7h-5.7v1.8h5.7Z" transform="translate(-0.92 -0.1)" style="fill:#005078"/><path d="M112.42,83.7h-5.7v1.8h5.7Z" transform="translate(-0.92 -0.1)" style="fill:#005078"/><path d="M102.82,93.1h-5.7v1.8h5.7Z" transform="translate(-0.92 -0.1)" style="fill:#005078"/><path d="M112.42,93.1h-5.7v1.8h5.7Z" transform="translate(-0.92 -0.1)" style="fill:#005078"/><path d="M102.82,102.4h-5.7v1.8h5.7Z" transform="translate(-0.92 -0.1)" style="fill:#005078"/><path d="M112.42,102.4h-5.7v1.8h5.7Z" transform="translate(-0.92 -0.1)" style="fill:#005078"/><path d="M102.82,111.7h-5.7v1.8h5.7Z" transform="translate(-0.92 -0.1)" style="fill:#005078"/><path d="M112.42,111.7h-5.7v1.8h5.7Z" transform="translate(-0.92 -0.1)" style="fill:#005078"/><path d="M102.82,121.1h-5.7v1.8h5.7Z" transform="translate(-0.92 -0.1)" style="fill:#005078"/><path d="M112.42,121.1h-5.7v1.8h5.7Z" transform="translate(-0.92 -0.1)" style="fill:#005078"/><path d="M102.82,130.4h-5.7v1.8h5.7Z" transform="translate(-0.92 -0.1)" style="fill:#005078"/><path d="M112.42,130.4h-5.7v1.8h5.7Z" transform="translate(-0.92 -0.1)" style="fill:#005078"/><path d="M158.92,65.1h-5.7v1.8h5.7Z" transform="translate(-0.92 -0.1)" style="fill:#005078"/><path d="M172.42,65.1h-5.7v1.8h5.7Z" transform="translate(-0.92 -0.1)" style="fill:#005078"/><path d="M158.92,74.4h-5.7v1.8h5.7Z" transform="translate(-0.92 -0.1)" style="fill:#005078"/><path d="M172.42,74.4h-5.7v1.8h5.7Z" transform="translate(-0.92 -0.1)" style="fill:#005078"/><path d="M158.92,83.7h-5.7v1.8h5.7Z" transform="translate(-0.92 -0.1)" style="fill:#005078"/><path d="M172.42,83.7h-5.7v1.8h5.7Z" transform="translate(-0.92 -0.1)" style="fill:#005078"/><path d="M158.92,93.1h-5.7v1.8h5.7Z" transform="translate(-0.92 -0.1)" style="fill:#005078"/><path d="M172.42,93.1h-5.7v1.8h5.7Z" transform="translate(-0.92 -0.1)" style="fill:#005078"/><path d="M158.92,102.4h-5.7v1.8h5.7Z" transform="translate(-0.92 -0.1)" style="fill:#005078"/><path d="M172.42,102.4h-5.7v1.8h5.7Z" transform="translate(-0.92 -0.1)" style="fill:#005078"/><path d="M158.92,111.7h-5.7v1.8h5.7Z" transform="translate(-0.92 -0.1)" style="fill:#005078"/><path d="M172.42,111.7h-5.7v1.8h5.7Z" transform="translate(-0.92 -0.1)" style="fill:#005078"/><path d="M158.92,121.1h-5.7v1.8h5.7Z" transform="translate(-0.92 -0.1)" style="fill:#005078"/><path d="M172.42,121.1h-5.7v1.8h5.7Z" transform="translate(-0.92 -0.1)" style="fill:#005078"/><path d="M158.92,130.4h-5.7v1.8h5.7Z" transform="translate(-0.92 -0.1)" style="fill:#005078"/><path d="M172.42,130.4h-5.7v1.8h5.7Z" transform="translate(-0.92 -0.1)" style="fill:#005078"/><path d="M201,65.1h-2V37.6h-1.8V65.1h-1.9v1.8H201Z" transform="translate(-0.92 -0.1)" style="fill:#005078"/><path d="M201,74.4h-5.7v1.8H201Z" transform="translate(-0.92 -0.1)" style="fill:#005078"/><path d="M201,83.7h-5.7v1.8H201Z" transform="translate(-0.92 -0.1)" style="fill:#005078"/><path d="M201,93.1h-5.7v1.8H201Z" transform="translate(-0.92 -0.1)" style="fill:#005078"/><path d="M201,102.4h-5.7v1.8H201Z" transform="translate(-0.92 -0.1)" style="fill:#005078"/><path d="M201,111.7h-5.7v1.8H201Z" transform="translate(-0.92 -0.1)" style="fill:#005078"/><path d="M201,121.1h-5.7v1.8H201Z" transform="translate(-0.92 -0.1)" style="fill:#005078"/><path d="M201,130.4h-5.7v1.8H201Z" transform="translate(-0.92 -0.1)" style="fill:#005078"/><path d="M133.93,42.8h-1.8V143.6h1.8Z" transform="translate(-0.92 -0.1)" style="fill:#005078"/><path d="M75.82,124.1H55.12v1.8h20.7Z" transform="translate(-0.92 -0.1)" style="fill:#005078"/><path d="M68.52,129.1H47.82v1.8h20.7Z" transform="translate(-0.92 -0.1)" style="fill:#005078"/><path d="M27.12,120.1h-6v1.8h6Z" transform="translate(-0.92 -0.1)" style="fill:#005078"/><path d="M27.12,125.7h-6v1.8h6Z" transform="translate(-0.92 -0.1)" style="fill:#005078"/><path d="M27.12,131.4h-6v1.8h6Z" transform="translate(-0.92 -0.1)" style="fill:#005078"/><path d="M27.12,137.1h-6v1.8h6Z" transform="translate(-0.92 -0.1)" style="fill:#005078"/><path d="M65.82,153.2h-2.1v3.5h2.1Z" transform="translate(-0.92 -0.1)" style="fill:#005078"/><path d="M65.82,159.6h-2.1v3.5h2.1Z" transform="translate(-0.92 -0.1)" style="fill:#005078"/><path d="M7.82,164.1H5.72v3.5h2.1Z" transform="translate(-0.92 -0.1)" style="fill:#005078"/><path d="M13.82,164.1h-2.1v3.5h2.1Z" transform="translate(-0.92 -0.1)" style="fill:#005078"/><path d="M24.12,161H22v2.1h2.1Z" transform="translate(-0.92 -0.1)" style="fill:#005078"/><path d="M30.62,161h-2.1v2.1h2.1Z" transform="translate(-0.92 -0.1)" style="fill:#005078"/><path d="M37,161h-2.1v2.1H37Z" transform="translate(-0.92 -0.1)" style="fill:#005078"/><path d="M43.52,161h-2.1v2.1h2.1Z" transform="translate(-0.92 -0.1)" style="fill:#005078"/><path d="M49.92,161h-2.1v2.1h2.1Z" transform="translate(-0.92 -0.1)" style="fill:#005078"/><path d="M90,154.2H81v2.1h9Z" transform="translate(-0.92 -0.1)" style="fill:#005078"/><path d="M90,158.6H81v2.1h9Z" transform="translate(-0.92 -0.1)" style="fill:#005078"/><path d="M90,162.9H81V165h9Z" transform="translate(-0.92 -0.1)" style="fill:#005078"/><path d="M100.72,154.2h-4.5v2.1h4.5Z" transform="translate(-0.92 -0.1)" style="fill:#005078"/><path d="M100.72,158.6h-4.5v2.1h4.5Z" transform="translate(-0.92 -0.1)" style="fill:#005078"/><path d="M100.72,162.9h-4.5V165h4.5Z" transform="translate(-0.92 -0.1)" style="fill:#005078"/><path d="M114.13,154.2h-4.5v2.1h4.5Z" transform="translate(-0.92 -0.1)" style="fill:#005078"/><path d="M114.13,148.9h-4.5V151h4.5Z" transform="translate(-0.92 -0.1)" style="fill:#005078"/><path d="M114.13,158.6h-4.5v2.1h4.5Z" transform="translate(-0.92 -0.1)" style="fill:#005078"/><path d="M114.13,162.9h-4.5V165h4.5Z" transform="translate(-0.92 -0.1)" style="fill:#005078"/><path d="M122.13,154.2h-4.5v2.1h4.5Z" transform="translate(-0.92 -0.1)" style="fill:#005078"/><path d="M122.13,158.6h-4.5v2.1h4.5Z" transform="translate(-0.92 -0.1)" style="fill:#005078"/><path d="M223,152h-4.5v2.1H223Z" transform="translate(-0.92 -0.1)" style="fill:#005078"/><path d="M225.22,157.5h-4.5v2.1h4.5Z" transform="translate(-0.92 -0.1)" style="fill:#005078"/><path d="M235.32,157.5h-4.5v2.1h4.5Z" transform="translate(-0.92 -0.1)" style="fill:#005078"/><path d="M239.82,163.9h-4.5V166h4.5Z" transform="translate(-0.92 -0.1)" style="fill:#005078"/><path d="M247.72,163.9h-4.5V166h4.5Z" transform="translate(-0.92 -0.1)" style="fill:#005078"/><path d="M232.42,152h-4.5v2.1h4.5Z" transform="translate(-0.92 -0.1)" style="fill:#005078"/><path d="M122.13,162.9h-4.5V165h4.5Z" transform="translate(-0.92 -0.1)" style="fill:#005078"/><path d="M130.13,158.6h-4.5v2.1h4.5Z" transform="translate(-0.92 -0.1)" style="fill:#005078"/><path d="M130.13,162.9h-4.5V165h4.5Z" transform="translate(-0.92 -0.1)" style="fill:#005078"/><path d="M70.62,146.7h-2.1v3.5h2.1Z" transform="translate(-0.92 -0.1)" style="fill:#005078"/><path d="M70.62,153.2h-2.1v3.5h2.1Z" transform="translate(-0.92 -0.1)" style="fill:#005078"/><path d="M70.62,159.6h-2.1v3.5h2.1Z" transform="translate(-0.92 -0.1)" style="fill:#005078"/><path d="M255.42,73.1H249v1.8h6.4Z" transform="translate(-0.92 -0.1)" style="fill:#005078"/><path d="M255.42,78.8H249v1.8h6.4Z" transform="translate(-0.92 -0.1)" style="fill:#005078"/><path d="M255.42,84.6H249v1.8h6.4Z" transform="translate(-0.92 -0.1)" style="fill:#005078"/><path d="M255.42,96.1H249v1.8h6.4Z" transform="translate(-0.92 -0.1)" style="fill:#005078"/><path d="M255.42,101.8H249v1.8h6.4Z" transform="translate(-0.92 -0.1)" style="fill:#005078"/><path d="M255.42,107.6H249v1.8h6.4Z" transform="translate(-0.92 -0.1)" style="fill:#005078"/><path d="M255.42,113.3H249v1.8h6.4Z" transform="translate(-0.92 -0.1)" style="fill:#005078"/><path d="M255.42,119.1H249v1.8h6.4Z" transform="translate(-0.92 -0.1)" style="fill:#005078"/><path d="M255.42,130.6H249v1.8h6.4Z" transform="translate(-0.92 -0.1)" style="fill:#005078"/><path d="M255.42,136.3H249v1.8h6.4Z" transform="translate(-0.92 -0.1)" style="fill:#005078"/><path d="M255.42,142.1H249v1.8h6.4Z" transform="translate(-0.92 -0.1)" style="fill:#005078"/><path d="M245.72,78.8h-6.4v1.8h6.4Z" transform="translate(-0.92 -0.1)" style="fill:#005078"/><path d="M245.72,84.6h-6.4v1.8h6.4Z" transform="translate(-0.92 -0.1)" style="fill:#005078"/><path d="M245.72,90.3h-6.4v1.8h6.4Z" transform="translate(-0.92 -0.1)" style="fill:#005078"/><path d="M245.72,96.1h-6.4v1.8h6.4Z" transform="translate(-0.92 -0.1)" style="fill:#005078"/><path d="M245.72,101.8h-6.4v1.8h6.4Z" transform="translate(-0.92 -0.1)" style="fill:#005078"/><path d="M245.72,113.3h-6.4v1.8h6.4Z" transform="translate(-0.92 -0.1)" style="fill:#005078"/><path d="M245.72,119.1h-6.4v1.8h6.4Z" transform="translate(-0.92 -0.1)" style="fill:#005078"/><path d="M245.72,124.8h-6.4v1.8h6.4Z" transform="translate(-0.92 -0.1)" style="fill:#005078"/><path d="M245.72,130.6h-6.4v1.8h6.4Z" transform="translate(-0.92 -0.1)" style="fill:#005078"/><path d="M245.72,136.3h-6.4v1.8h6.4Z" transform="translate(-0.92 -0.1)" style="fill:#005078"/><path d="M272.72,103.3H270v2.5h2.7Z" transform="translate(-0.92 -0.1)" style="fill:#005078"/><path d="M272.72,108.6H270v2.5h2.7Z" transform="translate(-0.92 -0.1)" style="fill:#005078"/><path d="M272.72,114H270v2.5h2.7Z" transform="translate(-0.92 -0.1)" style="fill:#005078"/><path d="M272.72,119.3H270v2.5h2.7Z" transform="translate(-0.92 -0.1)" style="fill:#005078"/><path d="M272.72,124.7H270v2.5h2.7Z" transform="translate(-0.92 -0.1)" style="fill:#005078"/><path d="M272.72,130H270v2.5h2.7Z" transform="translate(-0.92 -0.1)" style="fill:#005078"/><path d="M272.72,135.3H270v2.5h2.7Z" transform="translate(-0.92 -0.1)" style="fill:#005078"/><path d="M272.72,140.7H270v2.5h2.7Z" transform="translate(-0.92 -0.1)" style="fill:#005078"/><path d="M279.42,124.7h-2.7v2.5h2.7Z" transform="translate(-0.92 -0.1)" style="fill:#005078"/><path d="M279.42,130h-2.7v2.5h2.7Z" transform="translate(-0.92 -0.1)" style="fill:#005078"/><path d="M279.42,135.3h-2.7v2.5h2.7Z" transform="translate(-0.92 -0.1)" style="fill:#005078"/><path d="M286.22,124.7h-2.7v2.5h2.7Z" transform="translate(-0.92 -0.1)" style="fill:#005078"/><path d="M286.22,130h-2.7v2.5h2.7Z" transform="translate(-0.92 -0.1)" style="fill:#005078"/><path d="M286.22,135.3h-2.7v2.5h2.7Z" transform="translate(-0.92 -0.1)" style="fill:#005078"/><path d="M286.22,140.7h-2.7v2.5h2.7Z" transform="translate(-0.92 -0.1)" style="fill:#005078"/><path d="M293,130h-2.7v2.5H293Z" transform="translate(-0.92 -0.1)" style="fill:#005078"/><path d="M293,135.3h-2.7v2.5H293Z" transform="translate(-0.92 -0.1)" style="fill:#005078"/><path d="M293,140.7h-2.7v2.5H293Z" transform="translate(-0.92 -0.1)" style="fill:#005078"/><path d="M299.72,124.7H297v2.5h2.7Z" transform="translate(-0.92 -0.1)" style="fill:#005078"/><path d="M299.72,130H297v2.5h2.7Z" transform="translate(-0.92 -0.1)" style="fill:#005078"/><path d="M299.72,135.3H297v2.5h2.7Z" transform="translate(-0.92 -0.1)" style="fill:#005078"/><path d="M332.92,104.5h-1.8v5.9h1.8Z" transform="translate(-0.92 -0.1)" style="fill:#005078"/><path d="M332.92,115.2h-1.8v11.9h1.8Z" transform="translate(-0.92 -0.1)" style="fill:#005078"/><path d="M332.92,130.4h-1.8v11.9h1.8Z" transform="translate(-0.92 -0.1)" style="fill:#005078"/><path d="M332.92,146h-1.8v11.9h1.8Z" transform="translate(-0.92 -0.1)" style="fill:#005078"/><path d="M338,111.1h-1.8V117H338Z" transform="translate(-0.92 -0.1)" style="fill:#005078"/><path d="M338,121.8h-1.8v11.9H338Z" transform="translate(-0.92 -0.1)" style="fill:#005078"/><path d="M338,136.9h-1.8v11.9H338Z" transform="translate(-0.92 -0.1)" style="fill:#005078"/><path d="M338,152.6h-1.8V162H338Z" transform="translate(-0.92 -0.1)" style="fill:#005078"/><path d="M342,104.5h-1.8v5.9H342Z" transform="translate(-0.92 -0.1)" style="fill:#005078"/><path d="M342,115.2h-1.8v11.9H342Z" transform="translate(-0.92 -0.1)" style="fill:#005078"/><path d="M342,130.4h-1.8v11.9H342Z" transform="translate(-0.92 -0.1)" style="fill:#005078"/><path d="M342,146h-1.8v11.9H342Z" transform="translate(-0.92 -0.1)" style="fill:#005078"/><path d="M316.72,104.8h-3.6v1.7h3.6Z" transform="translate(-0.92 -0.1)" style="fill:#005078"/><path d="M310.72,109.6h-3.6v1.7h3.6Z" transform="translate(-0.92 -0.1)" style="fill:#005078"/><path d="M293.42,155.3h-3.6V157h3.6Z" transform="translate(-0.92 -0.1)" style="fill:#005078"/><path d="M300.22,155.3h-3.6V157h3.6Z" transform="translate(-0.92 -0.1)" style="fill:#005078"/><path d="M286.72,160.1h-3.6v1.7h3.6Z" transform="translate(-0.92 -0.1)" style="fill:#005078"/><path d="M293.42,160.1h-3.6v1.7h3.6Z" transform="translate(-0.92 -0.1)" style="fill:#005078"/><path d="M279.92,160.1h-3.6v1.7h3.6Z" transform="translate(-0.92 -0.1)" style="fill:#005078"/><path d="M316.72,109.6h-3.6v1.7h3.6Z" transform="translate(-0.92 -0.1)" style="fill:#005078"/><path d="M310.72,114.4h-3.6v1.7h3.6Z" transform="translate(-0.92 -0.1)" style="fill:#005078"/><path d="M310.72,119.2h-3.6v1.7h3.6Z" transform="translate(-0.92 -0.1)" style="fill:#005078"/><path d="M316.72,119.2h-3.6v1.7h3.6Z" transform="translate(-0.92 -0.1)" style="fill:#005078"/><path d="M316.72,124.1h-3.6v1.7h3.6Z" transform="translate(-0.92 -0.1)" style="fill:#005078"/><path d="M310.72,128.9h-3.6v1.7h3.6Z" transform="translate(-0.92 -0.1)" style="fill:#005078"/><path d="M316.72,128.9h-3.6v1.7h3.6Z" transform="translate(-0.92 -0.1)" style="fill:#005078"/><path d="M310.72,133.7h-3.6v1.7h3.6Z" transform="translate(-0.92 -0.1)" style="fill:#005078"/><path d="M310.72,138.5h-3.6v1.7h3.6Z" transform="translate(-0.92 -0.1)" style="fill:#005078"/><path d="M316.72,138.5h-3.6v1.7h3.6Z" transform="translate(-0.92 -0.1)" style="fill:#005078"/><path d="M316.72,143.4h-3.6v1.7h3.6Z" transform="translate(-0.92 -0.1)" style="fill:#005078"/><path d="M310.72,148.2h-3.6v1.7h3.6Z" transform="translate(-0.92 -0.1)" style="fill:#005078"/><path d="M316.72,148.2h-3.6v1.7h3.6Z" transform="translate(-0.92 -0.1)" style="fill:#005078"/><path d="M310.72,153h-3.6v1.7h3.6Z" transform="translate(-0.92 -0.1)" style="fill:#005078"/><path d="M310.72,157.8h-3.6v1.7h3.6Z" transform="translate(-0.92 -0.1)" style="fill:#005078"/><path d="M316.72,157.8h-3.6v1.7h3.6Z" transform="translate(-0.92 -0.1)" style="fill:#005078"/><path d="M368.92,121.1h-5.8v1.8h5.8Z" transform="translate(-0.92 -0.1)" style="fill:#005078"/><path d="M368.92,126.8h-5.8v1.8h5.8Z" transform="translate(-0.92 -0.1)" style="fill:#005078"/><path d="M368.92,132.6h-5.8v1.8h5.8Z" transform="translate(-0.92 -0.1)" style="fill:#005078"/><path d="M368.92,138.3h-5.8v1.8h5.8Z" transform="translate(-0.92 -0.1)" style="fill:#005078"/><path d="M368.92,144.1h-5.8v1.8h5.8Z" transform="translate(-0.92 -0.1)" style="fill:#005078"/><path d="M368.92,149.8h-5.8v1.8h5.8Z" transform="translate(-0.92 -0.1)" style="fill:#005078"/><path d="M400.82,114.1h-4.2v1.8h4.2Z" transform="translate(-0.92 -0.1)" style="fill:#005078"/><path d="M400.82,121.2h-4.2V123h4.2Z" transform="translate(-0.92 -0.1)" style="fill:#005078"/><path d="M400.82,128.4h-4.2v1.8h4.2Z" transform="translate(-0.92 -0.1)" style="fill:#005078"/><path d="M400.82,135.5h-4.2v1.8h4.2Z" transform="translate(-0.92 -0.1)" style="fill:#005078"/><path d="M400.82,142.7h-4.2v1.8h4.2Z" transform="translate(-0.92 -0.1)" style="fill:#005078"/><path d="M400.82,149.8h-4.2v1.8h4.2Z" transform="translate(-0.92 -0.1)" style="fill:#005078"/><path d="M421,106.1h-3.2v1.8H421Z" transform="translate(-0.92 -0.1)" style="fill:#005078"/><path d="M421,113.9h-3.2v1.8H421Z" transform="translate(-0.92 -0.1)" style="fill:#005078"/><path d="M421,121.7h-3.2v1.8H421Z" transform="translate(-0.92 -0.1)" style="fill:#005078"/><path d="M421,129.6h-3.2v1.8H421Z" transform="translate(-0.92 -0.1)" style="fill:#005078"/><path d="M421,137.4h-3.2v1.8H421Z" transform="translate(-0.92 -0.1)" style="fill:#005078"/><path d="M421,145.2h-3.2V147H421Z" transform="translate(-0.92 -0.1)" style="fill:#005078"/><path d="M421,153.1h-3.2v1.8H421Z" transform="translate(-0.92 -0.1)" style="fill:#005078"/><path d="M421,160.9h-3.2v1.8H421Z" transform="translate(-0.92 -0.1)" style="fill:#005078"/><path d="M414.12,106.1h-3.2v1.8h3.2Z" transform="translate(-0.92 -0.1)" style="fill:#005078"/><path d="M414.12,113.9h-3.2v1.8h3.2Z" transform="translate(-0.92 -0.1)" style="fill:#005078"/><path d="M414.12,121.7h-3.2v1.8h3.2Z" transform="translate(-0.92 -0.1)" style="fill:#005078"/><path d="M414.12,129.6h-3.2v1.8h3.2Z" transform="translate(-0.92 -0.1)" style="fill:#005078"/><path d="M414.12,137.4h-3.2v1.8h3.2Z" transform="translate(-0.92 -0.1)" style="fill:#005078"/><path d="M414.12,145.2h-3.2V147h3.2Z" transform="translate(-0.92 -0.1)" style="fill:#005078"/><path d="M414.12,153.1h-3.2v1.8h3.2Z" transform="translate(-0.92 -0.1)" style="fill:#005078"/><path d="M414.12,160.9h-3.2v1.8h3.2Z" transform="translate(-0.92 -0.1)" style="fill:#005078"/><path d="M456,120.1h-2v2h2Z" transform="translate(-0.92 -0.1)" style="fill:#005078"/><path d="M467.32,120.1h-2v2h2Z" transform="translate(-0.92 -0.1)" style="fill:#005078"/><path d="M478.63,120.1h-2v2h2Z" transform="translate(-0.92 -0.1)" style="fill:#005078"/><path d="M489.92,120.1h-2v2h2Z" transform="translate(-0.92 -0.1)" style="fill:#005078"/><path d="M501.22,120.1h-2v2h2Z" transform="translate(-0.92 -0.1)" style="fill:#005078"/><path d="M456,124.8h-2v2h2Z" transform="translate(-0.92 -0.1)" style="fill:#005078"/><path d="M461.63,124.8h-2v2h2Z" transform="translate(-0.92 -0.1)" style="fill:#005078"/><path d="M467.32,124.8h-2v2h2Z" transform="translate(-0.92 -0.1)" style="fill:#005078"/><path d="M472.92,124.8h-2v2h2Z" transform="translate(-0.92 -0.1)" style="fill:#005078"/><path d="M478.63,124.8h-2v2h2Z" transform="translate(-0.92 -0.1)" style="fill:#005078"/><path d="M484.22,124.8h-2v2h2Z" transform="translate(-0.92 -0.1)" style="fill:#005078"/><path d="M489.92,124.8h-2v2h2Z" transform="translate(-0.92 -0.1)" style="fill:#005078"/><path d="M495.52,124.8h-2v2h2Z" transform="translate(-0.92 -0.1)" style="fill:#005078"/><path d="M501.22,124.8h-2v2h2Z" transform="translate(-0.92 -0.1)" style="fill:#005078"/><path d="M506.82,124.8h-2v2h2Z" transform="translate(-0.92 -0.1)" style="fill:#005078"/><path d="M461.63,129.4h-2v2h2Z" transform="translate(-0.92 -0.1)" style="fill:#005078"/><path d="M472.92,129.4h-2v2h2Z" transform="translate(-0.92 -0.1)" style="fill:#005078"/><path d="M484.22,129.4h-2v2h2Z" transform="translate(-0.92 -0.1)" style="fill:#005078"/><path d="M495.52,129.4h-2v2h2Z" transform="translate(-0.92 -0.1)" style="fill:#005078"/><path d="M506.82,129.4h-2v2h2Z" transform="translate(-0.92 -0.1)" style="fill:#005078"/><path d="M458,141.1h-1.8v16.2H458Z" transform="translate(-0.92 -0.1)" style="fill:#005078"/><path d="M464.72,141.1h-1.8v16.2h1.8Z" transform="translate(-0.92 -0.1)" style="fill:#005078"/><path d="M471.42,141.1h-1.8v16.2h1.8Z" transform="translate(-0.92 -0.1)" style="fill:#005078"/><path d="M478,141.1h-1.8v16.2H478Z" transform="translate(-0.92 -0.1)" style="fill:#005078"/><path d="M484.72,141.1h-1.8v16.2h1.8Z" transform="translate(-0.92 -0.1)" style="fill:#005078"/><path d="M491.42,141.1h-1.8v16.2h1.8Z" transform="translate(-0.92 -0.1)" style="fill:#005078"/><path d="M498,141.1h-1.8v16.2H498Z" transform="translate(-0.92 -0.1)" style="fill:#005078"/><path d="M518.62,106.1h-4.7v1.8h4.7Z" transform="translate(-0.92 -0.1)" style="fill:#005078"/><path d="M518.62,111.8h-4.7v1.8h4.7Z" transform="translate(-0.92 -0.1)" style="fill:#005078"/><path d="M518.62,117.6h-4.7v1.8h4.7Z" transform="translate(-0.92 -0.1)" style="fill:#005078"/><path d="M518.62,123.3h-4.7v1.8h4.7Z" transform="translate(-0.92 -0.1)" style="fill:#005078"/><path d="M518.62,129.1h-4.7v1.8h4.7Z" transform="translate(-0.92 -0.1)" style="fill:#005078"/><path d="M518.62,134.8h-4.7v1.8h4.7Z" transform="translate(-0.92 -0.1)" style="fill:#005078"/><path d="M518.62,140.6h-4.7v1.8h4.7Z" transform="translate(-0.92 -0.1)" style="fill:#005078"/><path d="M518.62,146.3h-4.7v1.8h4.7Z" transform="translate(-0.92 -0.1)" style="fill:#005078"/><path d="M518.62,152.1h-4.7v1.8h4.7Z" transform="translate(-0.92 -0.1)" style="fill:#005078"/><path d="M518.62,157.8h-4.7v1.8h4.7Z" transform="translate(-0.92 -0.1)" style="fill:#005078"/><path d="M563.83,110.6h-1.7v4h1.7Z" transform="translate(-0.92 -0.1)" style="fill:#005078"/><path d="M568.72,110.6H567v4h1.7Z" transform="translate(-0.92 -0.1)" style="fill:#005078"/><path d="M573.52,110.6h-1.7v4h1.7Z" transform="translate(-0.92 -0.1)" style="fill:#005078"/><path d="M578.33,110.6h-1.7v4h1.7Z" transform="translate(-0.92 -0.1)" style="fill:#005078"/><path d="M583.22,110.6h-1.7v4h1.7Z" transform="translate(-0.92 -0.1)" style="fill:#005078"/><path d="M559,118.1h-1.7v4H559Z" transform="translate(-0.92 -0.1)" style="fill:#005078"/><path d="M563.83,118.1h-1.7v4h1.7Z" transform="translate(-0.92 -0.1)" style="fill:#005078"/><path d="M568.72,118.1H567v4h1.7Z" transform="translate(-0.92 -0.1)" style="fill:#005078"/><path d="M578.33,118.1h-1.7v4h1.7Z" transform="translate(-0.92 -0.1)" style="fill:#005078"/><path d="M563.83,125.6h-1.7v4h1.7Z" transform="translate(-0.92 -0.1)" style="fill:#005078"/><path d="M568.72,125.6H567v4h1.7Z" transform="translate(-0.92 -0.1)" style="fill:#005078"/><path d="M573.52,125.6h-1.7v4h1.7Z" transform="translate(-0.92 -0.1)" style="fill:#005078"/><path d="M578.33,125.6h-1.7v4h1.7Z" transform="translate(-0.92 -0.1)" style="fill:#005078"/><path d="M559,133.1h-1.7v4H559Z" transform="translate(-0.92 -0.1)" style="fill:#005078"/><path d="M563.83,133.1h-1.7v4h1.7Z" transform="translate(-0.92 -0.1)" style="fill:#005078"/><path d="M568.72,133.1H567v4h1.7Z" transform="translate(-0.92 -0.1)" style="fill:#005078"/><path d="M573.52,133.1h-1.7v4h1.7Z" transform="translate(-0.92 -0.1)" style="fill:#005078"/><path d="M559,140.6h-1.7v4H559Z" transform="translate(-0.92 -0.1)" style="fill:#005078"/><path d="M563.83,140.6h-1.7v4h1.7Z" transform="translate(-0.92 -0.1)" style="fill:#005078"/><path d="M573.52,140.6h-1.7v4h1.7Z" transform="translate(-0.92 -0.1)" style="fill:#005078"/><path d="M578.33,140.6h-1.7v4h1.7Z" transform="translate(-0.92 -0.1)" style="fill:#005078"/><path d="M583.22,118.1h-1.7v4h1.7Z" transform="translate(-0.92 -0.1)" style="fill:#005078"/><path d="M588,110.6h-1.7v4H588Z" transform="translate(-0.92 -0.1)" style="fill:#005078"/><path d="M619.72,131.6h-34.5v1.8h34.5Z" transform="translate(-0.92 -0.1)" style="fill:#005078"/><path d="M606.52,136.2h-21.3V138h21.3Z" transform="translate(-0.92 -0.1)" style="fill:#005078"/><path d="M606.52,140.8h-21.3v1.8h21.3Z" transform="translate(-0.92 -0.1)" style="fill:#005078"/><path d="M606.52,145.4h-21.3v1.8h21.3Z" transform="translate(-0.92 -0.1)" style="fill:#005078"/></g></svg>