<svg width="65" height="57" viewBox="0 0 65 57" fill="none" xmlns="http://www.w3.org/2000/svg">
<path d="M48.0632 4.55005V42.3477H62.8453V4.55005H48.0632ZM58.4259 31.683H49.4219V22.6952H58.4259V31.683ZM58.4259 18.9565H49.4219V9.96899H58.4259V18.9565Z" fill="#4EB4ED"/>
<path d="M30.4478 31.2305H18.1968V37.6985H30.4478V31.2305Z" fill="#FFCA49"/>
<path d="M22.4229 17.0563C22.4229 17.5866 22.8536 18.0165 23.3845 18.0165C23.9157 18.0165 24.3464 17.5866 24.3464 17.0563V15.3369H22.4229V17.0563Z" fill="#FFCA49"/>
<path d="M17.5422 4.26465V11.0513C17.5422 11.8851 18.2256 12.5672 19.0609 12.5672H29.9894C30.8247 12.5672 31.5081 11.8851 31.5081 11.0513V4.26465H17.5422Z" fill="#FFCA49"/>
<path d="M22.0043 14.9042H27.0467C28.2403 14.9042 29.2075 13.9386 29.2075 12.7473H19.8435C19.8435 13.9389 20.8109 14.9042 22.0043 14.9042Z" fill="#FFCA49"/>
<path d="M54.9908 55.6665H47.2652C46.9296 55.6665 46.6577 55.9382 46.6577 56.2729C46.6577 56.6079 46.9296 56.8793 47.2652 56.8793H54.9908C55.3261 56.8793 55.5983 56.6079 55.5983 56.2729C55.5983 55.9379 55.3261 55.6665 54.9908 55.6665Z" fill="black"/>
<path d="M49.4224 19.5629H58.4264C58.7618 19.5629 59.0339 19.2913 59.0339 18.9565V9.96903C59.0339 9.6343 58.7621 9.36264 58.4264 9.36264H57.4113L58.7773 5.79984C58.8972 5.48725 58.7402 5.13646 58.427 5.0167C58.1142 4.89785 57.7625 5.05338 57.6425 5.36628L56.1104 9.36264H49.4224C49.0871 9.36264 48.8149 9.6343 48.8149 9.96903V18.9568C48.8149 19.2916 49.0868 19.5629 49.4224 19.5629ZM50.0299 10.5754H55.6451L53.6988 15.6527L52.0227 11.9352C51.8848 11.6296 51.524 11.4947 51.2193 11.6308C50.9132 11.7685 50.7768 12.1274 50.9144 12.4328L53.1897 17.4797C53.2881 17.698 53.5053 17.8375 53.7437 17.8375C53.7495 17.8375 53.7552 17.8375 53.7613 17.8371C54.0067 17.8302 54.2233 17.6768 54.3114 17.4479L56.946 10.5757H57.8187V18.3508H50.0296V10.5754H50.0299Z" fill="black"/>
<path d="M49.4223 32.2894H58.4263C58.7616 32.2894 59.0338 32.0178 59.0338 31.6831V22.6953C59.0338 22.3605 58.7619 22.0889 58.4263 22.0889H49.4223C49.4211 22.0889 49.4199 22.0892 49.4187 22.0892C49.384 22.0895 49.3491 22.0937 49.3145 22.0998C49.2871 22.1046 49.261 22.1128 49.2349 22.121C49.2191 22.1262 49.203 22.1292 49.1878 22.1359C49.1611 22.1471 49.1365 22.1619 49.1116 22.1768C49.1025 22.1823 49.0924 22.1859 49.083 22.1923C49.0499 22.2144 49.0189 22.2402 48.9907 22.2687C48.9901 22.2693 48.9895 22.2696 48.9889 22.2702C48.981 22.2781 48.9755 22.2878 48.9682 22.2959C48.9497 22.3169 48.9311 22.3381 48.9157 22.3614C48.9053 22.3769 48.8977 22.3936 48.8892 22.4096C48.8792 22.4284 48.8683 22.4463 48.8601 22.466C48.8522 22.4854 48.8473 22.5055 48.8415 22.5255C48.8361 22.5434 48.8297 22.5603 48.8261 22.5791C48.8206 22.6067 48.8188 22.6346 48.8176 22.6622C48.8169 22.6734 48.8142 22.6837 48.8142 22.6953V31.6831C48.8148 32.0178 49.0867 32.2894 49.4223 32.2894ZM50.7071 31.0767L53.9386 27.9811L57.0911 31.0767H50.7071ZM57.8185 30.0901L54.8155 27.1413L57.8185 24.2646V30.0901ZM57.0686 23.3016L53.9492 26.2899L50.9061 23.3016H57.0686ZM50.0298 24.1424L53.0723 27.13L50.0298 30.0443V24.1424Z" fill="black"/>
<path d="M61.9383 0.26709H3.12332C1.44851 0.26709 0.0859375 1.62721 0.0859375 3.299V42.451C0.0859375 44.1228 1.44851 45.4829 3.12332 45.4829H22.7393V55.6665H15.8232C15.4879 55.6665 15.2158 55.9382 15.2158 56.2729C15.2158 56.608 15.4879 56.8793 15.8232 56.8793H41.7904C42.1261 56.8793 42.3979 56.608 42.3979 56.2729C42.3979 55.9382 42.1261 55.6665 41.7904 55.6665H40.5211V45.4829H61.938C63.6128 45.4829 64.9754 44.1228 64.9754 42.451V3.299C64.9757 1.62721 63.6131 0.26709 61.9383 0.26709ZM39.3064 55.6665H23.9543V45.4829H39.3064V55.6665ZM63.7607 42.451C63.7607 43.4543 62.9434 44.2702 61.9383 44.2702H3.12332C2.11825 44.2702 1.30089 43.4543 1.30089 42.451V3.299C1.30089 2.29574 2.11825 1.47986 3.12332 1.47986H61.9383C62.9434 1.47986 63.7607 2.29574 63.7607 3.299V42.451Z" fill="black"/>
<path d="M61.4151 3.50288H46.5963C46.5334 3.48105 46.4672 3.4668 46.397 3.4668C46.3269 3.4668 46.2607 3.48105 46.1978 3.50288H3.64678C3.31115 3.50288 3.03931 3.77454 3.03931 4.10926V41.6413C3.03931 41.9761 3.31146 42.2477 3.64678 42.2477H61.4151C61.7504 42.2477 62.0226 41.9761 62.0226 41.6413V4.10926C62.0226 3.77423 61.7507 3.50288 61.4151 3.50288ZM16.9335 4.71564H29.6844V11.0514C29.6844 11.5529 29.2756 11.961 28.7732 11.961H17.8447C17.3423 11.961 16.9335 11.5529 16.9335 11.0514V4.71564ZM20.788 14.298C20.0805 14.298 19.4889 13.8208 19.3021 13.1738H27.3165C27.1297 13.8208 26.538 14.298 25.8303 14.298H20.788ZM23.7139 15.5108V17.0816C23.7139 17.2769 23.555 17.4354 23.3594 17.4354C23.1641 17.4354 23.0052 17.2769 23.0052 17.0816V15.5108H23.7139ZM4.25426 4.71564H15.7186V6.43565H4.25426V4.71564ZM15.6569 7.64842V9.50334H4.36239V7.64842H15.6569ZM45.7896 41.035H4.25426V10.7161H15.7186V11.0514C15.7186 12.2215 16.6726 13.1738 17.8447 13.1738H18.0561C18.2627 14.4951 19.4072 15.5108 20.788 15.5108H21.7903V17.0816C21.7903 17.7359 22.1952 18.2965 22.7674 18.5303C22.9995 19.4514 23.8338 20.1363 24.8271 20.1363H36.0186C36.521 20.1363 36.9298 20.5444 36.9298 21.0458V21.1053C36.9298 21.6067 36.521 22.0148 36.0186 22.0148H11.9726C10.8004 22.0148 9.84639 22.9672 9.84639 24.1372V24.1972C9.84639 25.3672 10.8004 26.3196 11.9726 26.3196H36.1629C36.6653 26.3196 37.0741 26.7086 37.0741 27.187C37.0741 27.6654 36.6653 28.0547 36.1629 28.0547H24.9382C23.7661 28.0547 22.8121 28.8588 22.8121 29.8475V30.5491H12.7674C12.4321 30.5491 12.16 30.8207 12.16 31.1555C12.16 31.4905 12.4321 31.7618 12.7674 31.7618H16.0691V37.698C16.0691 38.0331 16.3412 38.3044 16.6765 38.3044H28.9275C29.2629 38.3044 29.535 38.0331 29.535 37.698V31.7624H33.463C33.7986 31.7624 34.0704 31.4911 34.0704 31.1561C34.0704 30.8213 33.7986 30.5497 33.463 30.5497H24.0267V29.8481C24.0267 29.5743 24.4164 29.2681 24.9379 29.2681H36.1626C37.3347 29.2681 38.2887 28.3349 38.2887 27.1876C38.2887 26.0406 37.3347 25.1074 36.1626 25.1074H11.9726C11.4702 25.1074 11.0613 24.6993 11.0613 24.1978V24.1378C11.0613 23.6363 11.4702 23.2282 11.9726 23.2282H36.0186C37.1907 23.2282 38.1448 22.2759 38.1448 21.1059V21.0464C38.1448 19.8764 37.1907 18.9241 36.0186 18.9241H24.8271C24.4966 18.9241 24.2093 18.7458 24.0495 18.4821C24.568 18.2259 24.9288 17.6977 24.9288 17.0822V15.5114H25.8303C27.2111 15.5114 28.3556 14.4957 28.5621 13.1744H28.7732C29.9454 13.1744 30.8994 12.2221 30.8994 11.052V10.7167H45.7893V41.035H45.7896ZM28.3201 31.837V37.0923H17.284V31.837H28.3201ZM45.7896 9.50334H30.9656V7.64842H45.7896V9.50334ZM45.7896 6.43565H30.8994V4.71564H45.7893V6.43565H45.7896ZM60.8076 41.035H47.0045V10.1097V7.04203V4.71564H60.8076V41.035Z" fill="black"/>
</svg>
