<svg width="49" height="59" viewBox="0 0 49 59" fill="none" xmlns="http://www.w3.org/2000/svg">
<path d="M27.2955 9.2981H18.7515V16.9118H27.2955V9.2981Z" fill="#4EB4ED"/>
<path d="M5.50171 5.06592V15.4049H0V5.06592C0 3.55199 1.2316 2.32471 2.75085 2.32471H2.75086C4.27011 2.32471 5.50171 3.55199 5.50171 5.06592Z" fill="#FFCA49"/>
<path d="M45.4917 29.8938H27.1299V35.4491H45.4917V29.8938Z" fill="#FFCA49"/>
<path d="M31.1759 38.8455H27.1299V42.8773H31.1759V38.8455Z" fill="#4EB4ED"/>
<path d="M38.3341 38.8455H34.2881V42.8773H38.3341V38.8455Z" fill="#4EB4ED"/>
<path d="M45.4919 38.8455H41.4458V42.8773H45.4919V38.8455Z" fill="#4EB4ED"/>
<path d="M31.1759 45.0759H27.1299V49.1078H31.1759V45.0759Z" fill="#4EB4ED"/>
<path d="M38.3341 45.0759H34.2881V49.1078H38.3341V45.0759Z" fill="#4EB4ED"/>
<path d="M45.4919 45.0759H41.4458V49.1078H45.4919V45.0759Z" fill="#4EB4ED"/>
<path d="M31.1759 51.3066H27.1299V55.3385H31.1759V51.3066Z" fill="#4EB4ED"/>
<path d="M38.3341 51.3066H34.2881V55.3385H38.3341V51.3066Z" fill="#4EB4ED"/>
<path d="M45.4919 51.3066H41.4458V55.3385H45.4919V51.3066Z" fill="#4EB4ED"/>
<path d="M6.22057 34.7372C6.27513 34.7596 6.33229 34.7704 6.38902 34.7704C6.50528 34.7704 6.6196 34.7247 6.70447 34.6392L9.2108 32.1106L11.7212 34.6392C11.8046 34.7234 11.9181 34.7704 12.0365 34.7704H12.0367C12.1551 34.7704 12.2688 34.7229 12.3519 34.6392L14.8578 32.1106L17.3637 34.6392C17.5305 34.8066 17.8279 34.8066 17.9946 34.6392L20.5008 32.1106L21.2083 32.8247L21.8392 32.2042L20.8162 31.1717C20.7331 31.0875 20.6194 31.04 20.5008 31.04C20.3821 31.04 20.2687 31.0875 20.1853 31.1712L17.6792 33.6998L15.1733 31.1712C15.0066 31.0038 14.7091 31.0038 14.5424 31.1712L12.0363 33.6998L9.52583 31.1712C9.44247 31.0871 9.32902 31.04 9.21059 31.04H9.21037C9.09194 31.04 8.97849 31.0875 8.89513 31.1712L6.83243 33.2524V10.9272H6.83048V4.18321C6.83048 3.27904 6.4485 2.46372 5.83908 1.88372H27.0604C27.866 1.88372 28.5216 2.53702 28.5216 3.33962V24.1416H29.4085V3.33962C29.4085 2.04942 28.3551 1 27.0604 1H3.63413V1.00011C1.87379 1.00129 0.441895 2.4286 0.441895 4.18321V14.5221C0.441895 14.7663 0.640435 14.9639 0.885309 14.9639H5.9456V34.3285C5.9456 34.5076 6.05429 34.6694 6.22057 34.7372ZM5.94365 14.0802H1.32872V4.18321C1.32872 2.91545 2.36386 1.88372 3.6363 1.88372C4.90851 1.88372 5.94365 2.91545 5.94365 4.18321V14.0802Z" fill="black" stroke="black" stroke-width="0.2"/>
<path d="M26.2194 5.66553H8.97217V6.54925H26.2194V5.66553Z" fill="black" stroke="black" stroke-width="0.2"/>
<path d="M26.2194 10.3303H8.97217V11.214H26.2194V10.3303Z" fill="black" stroke="black" stroke-width="0.2"/>
<path d="M26.2194 14.9954H8.97217V15.8791H26.2194V14.9954Z" fill="black" stroke="black" stroke-width="0.2"/>
<path d="M26.2194 19.6606H8.97217V20.5444H26.2194V19.6606Z" fill="black" stroke="black" stroke-width="0.2"/>
<path d="M25.279 58.0001H45.5712C46.9104 58.0001 47.9998 56.9144 47.9998 55.5802V27.8867C47.9998 26.5525 46.9104 25.4668 45.5712 25.4668H25.279C23.9399 25.4668 22.8506 26.5525 22.8506 27.8867V55.5802C22.8506 56.9144 23.9399 58.0001 25.279 58.0001ZM23.7374 27.8867C23.7374 27.0396 24.429 26.3505 25.279 26.3505H45.5712C46.4215 26.3505 47.113 27.0396 47.113 27.8867V55.5802C47.113 56.4272 46.4215 57.1164 45.5712 57.1164H25.279C24.429 57.1164 23.7374 56.4272 23.7374 55.5802V27.8867Z" fill="black" stroke="black" stroke-width="0.2"/>
<path d="M26.2442 35.008H44.6058C44.8507 35.008 45.0493 34.8104 45.0493 34.5661V29.011C45.0493 28.7667 44.8507 28.5691 44.6058 28.5691H26.2442C25.9993 28.5691 25.8008 28.7667 25.8008 29.011V34.5661C25.8008 34.8104 25.9993 35.008 26.2442 35.008ZM26.6876 29.4528H44.1624V34.1243H26.6876V29.4528Z" fill="black" stroke="black" stroke-width="0.2"/>
<path d="M26.2442 42.4367H30.2901C30.535 42.4367 30.7336 42.2391 30.7336 41.9948V37.9629C30.7336 37.7186 30.535 37.521 30.2901 37.521H26.2442C25.9993 37.521 25.8008 37.7186 25.8008 37.9629V41.9948C25.8008 42.2391 25.9993 42.4367 26.2442 42.4367ZM26.6876 38.4047H29.8467V41.553H26.6876V38.4047Z" fill="black" stroke="black" stroke-width="0.2"/>
<path d="M37.4478 37.521H33.4019C33.157 37.521 32.9585 37.7186 32.9585 37.9629V41.9948C32.9585 42.2391 33.157 42.4367 33.4019 42.4367H37.4478C37.6927 42.4367 37.8913 42.2391 37.8913 41.9948V37.9629C37.8913 37.7186 37.6927 37.521 37.4478 37.521ZM37.0044 41.553H33.8453V38.4047H37.0044V41.553Z" fill="black" stroke="black" stroke-width="0.2"/>
<path d="M44.6056 37.521H40.5596C40.3148 37.521 40.1162 37.7186 40.1162 37.9629V41.9948C40.1162 42.2391 40.3148 42.4367 40.5596 42.4367H44.6056C44.8504 42.4367 45.049 42.2391 45.049 41.9948V37.9629C45.049 37.7186 44.8504 37.521 44.6056 37.521ZM44.1622 41.553H41.003V38.4047H44.1622V41.553Z" fill="black" stroke="black" stroke-width="0.2"/>
<path d="M26.2442 48.6669H30.2901C30.535 48.6669 30.7336 48.4693 30.7336 48.2251V44.1931C30.7336 43.9488 30.535 43.7512 30.2901 43.7512H26.2442C25.9993 43.7512 25.8008 43.9488 25.8008 44.1931V48.2251C25.8008 48.4693 25.9993 48.6669 26.2442 48.6669ZM26.6876 44.6349H29.8467V47.7832H26.6876V44.6349Z" fill="black" stroke="black" stroke-width="0.2"/>
<path d="M37.4478 43.7512H33.4019C33.157 43.7512 32.9585 43.9488 32.9585 44.1931V48.2251C32.9585 48.4693 33.157 48.6669 33.4019 48.6669H37.4478C37.6927 48.6669 37.8913 48.4693 37.8913 48.2251V44.1931C37.8913 43.9488 37.6927 43.7512 37.4478 43.7512ZM37.0044 47.7832H33.8453V44.6349H37.0044V47.7832Z" fill="black" stroke="black" stroke-width="0.2"/>
<path d="M44.6056 43.7512H40.5596C40.3148 43.7512 40.1162 43.9488 40.1162 44.1931V48.2251C40.1162 48.4693 40.3148 48.6669 40.5596 48.6669H44.6056C44.8504 48.6669 45.049 48.4693 45.049 48.2251V44.1931C45.049 43.9488 44.8504 43.7512 44.6056 43.7512ZM44.1622 47.7832H41.003V44.6349H44.1622V47.7832Z" fill="black" stroke="black" stroke-width="0.2"/>
<path d="M26.2442 54.8974H30.2901C30.535 54.8974 30.7336 54.6998 30.7336 54.4555V50.4236C30.7336 50.1793 30.535 49.9817 30.2901 49.9817H26.2442C25.9993 49.9817 25.8008 50.1793 25.8008 50.4236V54.4555C25.8008 54.6998 25.9993 54.8974 26.2442 54.8974ZM26.6876 50.8654H29.8467V54.0137H26.6876V50.8654Z" fill="black" stroke="black" stroke-width="0.2"/>
<path d="M37.4478 49.9817H33.4019C33.157 49.9817 32.9585 50.1793 32.9585 50.4236V54.4555C32.9585 54.6998 33.157 54.8974 33.4019 54.8974H37.4478C37.6927 54.8974 37.8913 54.6998 37.8913 54.4555V50.4236C37.8913 50.1793 37.6927 49.9817 37.4478 49.9817ZM37.0044 54.0137H33.8453V50.8654H37.0044V54.0137Z" fill="black" stroke="black" stroke-width="0.2"/>
<path d="M44.6056 49.9817H40.5596C40.3148 49.9817 40.1162 50.1793 40.1162 50.4236V54.4555C40.1162 54.6998 40.3148 54.8974 40.5596 54.8974H44.6056C44.8504 54.8974 45.049 54.6998 45.049 54.4555V50.4236C45.049 50.1793 44.8504 49.9817 44.6056 49.9817ZM44.1622 54.0137H41.003V50.8654H44.1622V54.0137Z" fill="black" stroke="black" stroke-width="0.2"/>
</svg>
