<svg width="88" height="57" viewBox="0 0 88 57" fill="none" xmlns="http://www.w3.org/2000/svg">
<path d="M66.4077 24.0789V35.1942H82.89C82.89 35.1942 82.638 28.2473 78.8647 24.0789H66.4077Z" fill="#4EB4ED"/>
<path d="M62.7592 0.965088H21.9971V45.9306H62.7592V0.965088Z" fill="#FFCA49"/>
<path d="M86.3647 45.2485C86.3509 43.8424 86.2334 40.4633 85.5025 36.3782C84.6242 31.4684 82.6524 24.6081 78.2435 19.8072C78.109 19.6608 77.9199 19.5775 77.7215 19.5775H61.2017V0.965186C61.2017 0.571886 60.8841 0.252686 60.492 0.252686H19.7317C19.3399 0.252686 19.022 0.571886 19.022 0.965186V3.77172C19.0209 3.78704 19.0174 3.80129 19.0174 3.81661C19.0174 3.83193 19.0209 3.84618 19.022 3.8615V45.2186H17.9699C16.8841 45.2186 16.0009 46.1053 16.0009 47.1958C16.0009 48.2848 16.8841 49.1708 17.9699 49.1708H22.6605C22.8965 51.8452 24.4954 54.1305 26.7536 55.3225H8.53438C8.14264 55.3225 7.82471 55.6417 7.82471 56.035C7.82471 56.4287 8.14264 56.7475 8.53438 56.7475H53.5052C53.897 56.7475 54.2149 56.4287 54.2149 56.035C54.2149 55.6417 53.897 55.3225 53.5052 55.3225H33.8869C36.1451 54.1305 37.7419 51.8441 37.9782 49.1708H63.6405C63.8513 51.8231 65.4005 54.102 67.6101 55.3225H61.4327C61.0409 55.3225 60.723 55.6417 60.723 56.035C60.723 56.4287 61.0409 56.7475 61.4327 56.7475H83.2634C83.6552 56.7475 83.9731 56.4287 83.9731 56.035C83.9731 55.6417 83.6552 55.3225 83.2634 55.3225H75.0017C77.2113 54.1017 78.7609 51.8231 78.9716 49.1708H86.0322C87.1173 49.1708 87.9998 48.2848 87.9998 47.1958C87.9998 46.2193 87.2916 45.4084 86.3647 45.2485ZM65.525 37.0091H61.2017V21.0028H77.4072C81.4335 25.5343 83.2687 31.9661 84.1001 36.6009C84.8024 40.5129 84.9248 43.8299 84.9429 45.2178H78.4295C78.4287 45.2178 78.4277 45.2182 78.4277 45.2182H78.2417C77.0002 42.6247 74.3584 40.8292 71.3054 40.8292C68.2523 40.8292 65.6091 42.6247 64.3675 45.2189C64.3647 45.2189 64.3622 45.2182 64.3597 45.2182H61.2017V38.4338H65.525C65.9168 38.4338 66.2347 38.1146 66.2347 37.7213C66.2347 37.328 65.9171 37.0091 65.525 37.0091ZM37.7898 46.6432H63.852C63.7611 47.0012 63.6951 47.3692 63.6557 47.7454H37.9761C37.9406 47.3696 37.8774 47.0016 37.7898 46.6432ZM22.6644 47.7454H17.9699C17.6669 47.7454 17.4203 47.4989 17.4203 47.1954C17.4203 46.8912 17.6665 46.6432 17.9699 46.6432H22.8507C22.7631 47.0016 22.6999 47.3696 22.6644 47.7454ZM20.4414 45.2182V7.70615H23.1236C23.5153 7.70615 23.8333 7.38695 23.8333 6.99365C23.8333 6.60035 23.5153 6.28115 23.1236 6.28115H20.4414V4.52911H32.1823C32.574 4.52911 32.8919 4.20991 32.8919 3.81661C32.8919 3.42331 32.574 3.10411 32.1823 3.10411H20.4414V1.67769H59.7823V45.2186H37.2884C36.0606 42.588 33.3994 40.7608 30.3201 40.7608C27.2404 40.7608 24.5791 42.588 23.3514 45.2186H20.4414V45.2182ZM30.3204 54.781C26.8618 54.781 24.0476 51.9556 24.0476 48.4829C24.0476 45.0105 26.8618 42.1854 30.3204 42.1854C32.9313 42.1854 35.1732 43.7968 36.1156 46.0796C36.1284 46.1398 36.1511 46.1954 36.1777 46.2492C36.4417 46.9446 36.5929 47.6956 36.5929 48.4829C36.5929 51.956 33.779 54.781 30.3204 54.781ZM71.3057 54.8498C67.8471 54.8498 65.0332 52.0247 65.0332 48.5524C65.0332 45.0796 67.8471 42.2542 71.3057 42.2542C74.7647 42.2542 77.5789 45.0796 77.5789 48.5524C77.5789 52.0247 74.7647 54.8498 71.3057 54.8498ZM86.0322 47.7454H78.9528C78.9142 47.3696 78.851 47.0012 78.7598 46.6432H86.0322C86.3345 46.6432 86.5805 46.8908 86.5805 47.1954C86.5805 47.4989 86.3342 47.7454 86.0322 47.7454Z" fill="black"/>
<path d="M71.3057 44.019C68.8158 44.019 66.79 46.0525 66.79 48.5523C66.79 51.0521 68.8158 53.0856 71.3057 53.0856C73.7956 53.0856 75.8214 51.0521 75.8214 48.5523C75.8214 46.0525 73.7956 44.019 71.3057 44.019ZM71.3057 51.6603C69.5982 51.6603 68.2094 50.2659 68.2094 48.552C68.2094 46.838 69.5982 45.4437 71.3057 45.4437C73.0132 45.4437 74.402 46.838 74.402 48.552C74.402 50.2659 73.0132 51.6603 71.3057 51.6603Z" fill="black"/>
<path d="M30.3205 43.95C27.8306 43.95 25.8052 45.9838 25.8052 48.4832C25.8052 50.9827 27.8306 53.0165 30.3205 53.0165C32.8104 53.0165 34.8362 50.983 34.8362 48.4832C34.8362 45.9834 32.8104 43.95 30.3205 43.95ZM30.3205 51.5915C28.6134 51.5915 27.2245 50.1972 27.2245 48.4832C27.2245 46.7693 28.6134 45.375 30.3205 45.375C32.028 45.375 33.4168 46.7693 33.4168 48.4832C33.4168 50.1972 32.028 51.5915 30.3205 51.5915Z" fill="black"/>
<path d="M81.1334 35.6889C81.2672 35.5492 81.3388 35.3619 81.3318 35.1684C81.3211 34.8742 81.0269 27.9112 77.1219 23.5992C76.9875 23.4506 76.7969 23.3662 76.5971 23.3662H64.1423C63.7502 23.3662 63.4326 23.6854 63.4326 24.0787V35.1941C63.4326 35.5877 63.7502 35.9066 64.1423 35.9066H80.6228C80.8158 35.9069 81.0003 35.8282 81.1334 35.6889ZM64.852 34.4819V24.7916H76.2767C78.9589 27.9444 79.675 32.6736 79.856 34.4819H64.852Z" fill="black"/>
<path d="M16.7299 51.1102C16.7299 50.7165 16.412 50.3977 16.0203 50.3977H5.69942C5.30768 50.3977 4.98975 50.7165 4.98975 51.1102C4.98975 51.5035 5.30768 51.8227 5.69942 51.8227H16.0206C16.4124 51.8227 16.7299 51.5035 16.7299 51.1102Z" fill="black"/>
<path d="M13.4483 46.183C13.4483 45.7897 13.1304 45.4705 12.7386 45.4705H0.710654C0.318912 45.4705 0.000976562 45.7897 0.000976562 46.183C0.000976562 46.5766 0.318557 46.8955 0.710654 46.8955H12.7386C13.1307 46.8955 13.4483 46.5766 13.4483 46.183Z" fill="black"/>
<path d="M30.3205 47.2031C29.6165 47.2031 29.0435 47.777 29.0435 48.4831C29.0435 49.1899 29.6162 49.7653 30.3205 49.7653C31.0235 49.7653 31.5958 49.1903 31.5958 48.4831C31.5958 47.777 31.0238 47.2031 30.3205 47.2031Z" fill="black"/>
<path d="M71.306 47.2712C70.6031 47.2712 70.0308 47.8459 70.0308 48.5523C70.0308 49.2581 70.6028 49.8323 71.306 49.8323C72.009 49.8323 72.5813 49.2584 72.5813 48.5523C72.5817 47.8459 72.0097 47.2712 71.306 47.2712Z" fill="black"/>
</svg>
