<svg width="76" height="57" viewBox="0 0 76 57" fill="none" xmlns="http://www.w3.org/2000/svg">
<path d="M16.9368 56.3633C14.1035 56.3633 11.8071 54.0724 11.8071 51.2476C11.8071 48.4221 14.1035 46.1318 16.9368 46.1318H69.5699C72.4025 46.1318 74.699 48.4221 74.699 51.2476C74.699 54.0724 72.4028 56.3633 69.5699 56.3633H16.9368Z" fill="#FFCA49"/>
<path d="M60.792 17.9474C60.8136 14.2394 57.8165 11.216 54.0979 11.1944C50.38 11.1741 47.3485 14.163 47.3273 17.871C47.3108 20.7571 49.1254 23.2211 51.6821 24.185V16.4636H56.4111V24.2111C58.979 23.276 60.7759 20.8335 60.792 17.9474Z" fill="#FFCA49"/>
<path d="M60.6327 35.7876H48.46V46.131H60.6327V35.7876Z" fill="#4EB4ED"/>
<path d="M12.7479 17.9384C15.8427 17.9384 18.3515 15.4736 18.3515 12.4331C18.3515 9.39257 15.8427 6.92773 12.7479 6.92773C9.65312 6.92773 7.14429 9.39257 7.14429 12.4331C7.14429 15.4736 9.65312 17.9384 12.7479 17.9384Z" fill="#FFCA49"/>
<path d="M25.4444 32.4016C26.1833 32.4016 26.7823 31.8042 26.7823 31.0673C26.7823 30.3303 26.1833 29.7329 25.4444 29.7329C24.7054 29.7329 24.1064 30.3303 24.1064 31.0673C24.1064 31.8042 24.7054 32.4016 25.4444 32.4016Z" fill="#FFCA49"/>
<path d="M12.2493 51.2882C12.2493 52.849 13.5224 54.1188 15.0871 54.1188C16.6521 54.1188 17.9253 52.8487 17.9253 51.2882C17.9253 49.7273 16.6521 48.4573 15.0871 48.4573C13.5224 48.4576 12.2493 49.727 12.2493 51.2882ZM16.7093 51.2882C16.7093 52.1802 15.9815 52.906 15.0871 52.906C14.1927 52.906 13.4653 52.1802 13.4653 51.2882C13.4653 50.3959 14.1927 49.67 15.0871 49.67C15.9818 49.6703 16.7093 50.3962 16.7093 51.2882Z" fill="black"/>
<path d="M69.437 51.2882C69.437 49.7273 68.1638 48.4573 66.5988 48.4573C65.0341 48.4573 63.761 49.727 63.761 51.2882C63.761 52.849 65.0341 54.1188 66.5988 54.1188C68.1638 54.1188 69.437 52.849 69.437 51.2882ZM64.977 51.2882C64.977 50.3959 65.7045 49.67 66.5988 49.67C67.4932 49.67 68.221 50.3959 68.221 51.2882C68.221 52.1802 67.4932 52.906 66.5988 52.906C65.7045 52.906 64.977 52.1805 64.977 51.2882Z" fill="black"/>
<path d="M24.8945 51.2882C24.8945 52.849 26.1677 54.1188 27.7324 54.1188C29.2974 54.1188 30.5705 52.8487 30.5705 51.2882C30.5705 49.7273 29.2974 48.4573 27.7324 48.4573C26.1674 48.4576 24.8945 49.727 24.8945 51.2882ZM29.3542 51.2882C29.3542 52.1802 28.6264 52.906 27.7321 52.906C26.8377 52.906 26.1102 52.1802 26.1102 51.2882C26.1102 50.3959 26.8377 49.67 27.7321 49.67C28.6267 49.6703 29.3542 50.3962 29.3542 51.2882Z" fill="black"/>
<path d="M38.1833 51.2882C38.1833 52.849 39.4568 54.1188 41.0218 54.1188C42.5868 54.1188 43.8599 52.8487 43.8599 51.2882C43.8599 49.7273 42.5868 48.4573 41.0218 48.4573C39.4568 48.4576 38.1833 49.727 38.1833 51.2882ZM42.6439 51.2882C42.6439 52.1802 41.9162 52.906 41.0218 52.906C40.1271 52.906 39.3993 52.1802 39.3993 51.2882C39.3993 50.3959 40.1274 49.67 41.0218 49.67C41.9165 49.6703 42.6439 50.3962 42.6439 51.2882Z" fill="black"/>
<path d="M56.4209 51.2882C56.4209 49.7273 55.1477 48.4573 53.5827 48.4573C52.018 48.4573 50.7449 49.727 50.7449 51.2882C50.7449 52.849 52.018 54.1188 53.5827 54.1188C55.1477 54.1188 56.4209 52.849 56.4209 51.2882ZM51.9609 51.2882C51.9609 50.3959 52.6883 49.67 53.5827 49.67C54.4771 49.67 55.2049 50.3959 55.2049 51.2882C55.2049 52.1802 54.4771 52.906 53.5827 52.906C52.6883 52.906 51.9609 52.1805 51.9609 51.2882Z" fill="black"/>
<path d="M75.2387 55.7843H70.7082C72.0759 54.7374 72.963 53.0959 72.963 51.2476C72.963 48.0923 70.389 45.5255 67.2253 45.5255H59.2313V35.7882C59.2313 35.4535 58.9589 35.1818 58.6233 35.1818H53.2926V34.3101C53.2926 33.9751 53.0206 33.7038 52.6846 33.7038C52.349 33.7038 52.0766 33.9751 52.0766 34.3101V35.1818H46.4508C46.1152 35.1818 45.8428 35.4535 45.8428 35.7882V45.5255H29.2745V30.2386C29.2745 28.0268 27.5688 26.207 25.4006 26.0133L17.1577 14.9862C17.2741 14.7382 17.3729 14.4808 17.4559 14.2167L46.1444 7.763C46.4721 7.68932 46.6776 7.36491 46.6037 7.03807L46.3997 6.13607L48.8561 5.67037C49.2564 6.69879 50.055 7.52893 51.0607 7.97584L51.0443 10.784C47.8197 11.5408 45.3987 14.4287 45.3792 17.8678C45.3613 20.9082 47.2695 23.6751 50.1271 24.7526C50.3134 24.823 50.5232 24.7975 50.6877 24.6844C50.8518 24.5713 50.95 24.3846 50.95 24.1854V17.0701H52.076V17.9981C52.076 18.3329 52.3484 18.6045 52.684 18.6045C53.02 18.6045 53.292 18.3329 53.292 17.9981V17.0701H54.463V24.2111C54.463 24.4091 54.56 24.5947 54.7227 24.7081C54.826 24.7802 54.9479 24.8175 55.071 24.8175C55.1413 24.8175 55.2118 24.8054 55.2796 24.7805C58.1655 23.7294 60.0417 21.0485 60.0597 17.9508C60.0791 14.4693 57.6456 11.5356 54.3791 10.7791L54.3943 7.99494C55.8812 7.35551 56.9242 5.87987 56.9227 4.16563C56.9209 1.87047 55.0473 0.00341797 52.7424 0.00341797C51.627 0.00432754 50.5788 0.438497 49.7906 1.22619C49.472 1.54454 49.2145 1.90685 49.0172 2.29706C48.9436 2.28342 48.8676 2.28221 48.7931 2.29646L45.6656 2.8895L45.4817 2.07573C45.4461 1.91898 45.3497 1.78255 45.2132 1.69674C45.0767 1.61064 44.9123 1.58244 44.7548 1.61761L15.9055 8.10742C14.781 7.00441 13.2309 6.32132 11.5215 6.32132C8.09666 6.32132 5.31019 9.06278 5.31019 12.4324C5.31019 15.6141 7.79448 18.2325 10.954 18.516L19.462 29.8975C19.4477 29.9712 19.4301 30.0436 19.4194 30.1185L17.2522 45.5249H14.5919C11.4282 45.5249 8.85453 48.092 8.85453 51.247C8.85453 53.0953 9.7416 54.7368 11.1093 55.7837H0.760832C0.425216 55.7837 0.152832 56.055 0.152832 56.3901C0.152832 56.7248 0.424912 56.9964 0.760832 56.9964H45.8115C46.1474 56.9964 46.4195 56.7248 46.4195 56.3901C46.4195 56.055 46.1474 55.7837 45.8115 55.7837H14.7628C14.7084 55.7676 14.6518 55.7564 14.5919 55.7564C12.0988 55.7564 10.0705 53.7335 10.0705 51.247C10.0705 48.7605 12.0988 46.7377 14.5919 46.7377H67.225C69.7181 46.7377 71.7467 48.7605 71.7467 51.247C71.7467 53.7335 69.7184 55.7564 67.225 55.7564C67.1654 55.7564 67.1088 55.7676 67.0544 55.7837H53.7982C53.4626 55.7837 53.1902 56.055 53.1902 56.3901C53.1902 56.7248 53.4626 56.9964 53.7982 56.9964H75.2387C75.5743 56.9964 75.8467 56.7248 75.8467 56.3901C75.8467 56.0556 75.5743 55.7843 75.2387 55.7843ZM58.8443 17.9442C58.8312 20.2239 57.6149 22.2322 55.6796 23.2755V16.4637C55.6796 16.129 55.4073 15.8573 55.0716 15.8573H50.3426C50.007 15.8573 49.7346 16.129 49.7346 16.4637V23.2352C47.8143 22.1613 46.5827 20.1062 46.5958 17.8744C46.6144 14.5254 49.3622 11.8009 52.7205 11.8009L52.7549 11.8012C56.1314 11.8209 58.8631 14.5763 58.8443 17.9442ZM52.2621 10.529L52.2748 8.3051C52.4299 8.32269 52.5864 8.33482 52.7464 8.33482C52.7464 8.33482 52.7503 8.33482 52.7506 8.33482C52.8947 8.33482 53.037 8.32724 53.1771 8.31299L53.165 10.5345L52.2621 10.529ZM50.6521 2.08301C51.2108 1.52483 51.9538 1.21679 52.7467 1.21649C54.3779 1.21649 55.7061 2.53992 55.7073 4.16684C55.7085 5.64793 54.6093 6.87495 53.1817 7.08627L52.2536 7.08082C51.1324 6.89223 50.2244 6.07119 49.9082 5.00001C49.9106 4.95241 49.9094 4.9042 49.9 4.85509L49.793 4.29297C49.7915 4.25234 49.7866 4.21232 49.7866 4.17139C49.786 3.38279 50.0936 2.64118 50.6521 2.08301ZM48.4238 3.60109L48.5852 4.44911C48.5861 4.46154 48.5861 4.47398 48.587 4.4861L46.3906 4.90269L46.2222 4.01828L48.4238 3.60109ZM44.4298 2.93407L45.2841 6.71335L17.7113 12.9157C17.7243 12.7563 17.7335 12.5953 17.7335 12.4324C17.7335 11.9234 17.6654 11.4304 17.5447 10.958L28.717 8.43608C29.0447 8.3621 29.2499 8.03738 29.1757 7.71085C29.1012 7.38401 28.7741 7.17935 28.4485 7.25333L17.123 9.80984C17.0136 9.58548 16.8932 9.36749 16.7579 9.15889L44.4298 2.93407ZM11.5215 17.332C10.9363 17.332 10.3767 17.2277 9.85438 17.0455C7.91851 16.3703 6.52619 14.5606 6.52619 12.4331C6.52619 12.263 6.53531 12.095 6.55264 11.9292C6.73504 10.1873 7.85467 8.71775 9.40507 8.00252C10.0486 7.70569 10.7646 7.53469 11.5215 7.53469C12.5983 7.53469 13.5942 7.87397 14.4107 8.44427C14.8138 8.72593 15.1713 9.0646 15.4738 9.44844C16.1253 10.2758 16.5172 11.3094 16.5172 12.4331C16.5172 12.6938 16.4944 12.9494 16.4536 13.1992C16.4177 13.4193 16.3682 13.6349 16.3037 13.8441C16.1672 14.288 15.9669 14.7043 15.7152 15.0857C14.8348 16.4191 13.3148 17.3081 11.5829 17.3287C11.5623 17.3287 11.5422 17.332 11.5215 17.332ZM12.4366 18.4708C14.0821 18.2298 15.5161 17.3551 16.4761 16.1038L23.88 26.0085C22.2558 26.12 20.7531 27.1312 19.9618 28.538L12.4366 18.4708ZM28.0582 45.5255H18.4801L20.4859 31.2679L20.6239 30.2877C20.6549 30.0673 20.7117 29.8517 20.788 29.6431C21.2909 28.2703 22.709 27.207 24.1767 27.207H24.7759H25.0182C25.611 27.207 26.1628 27.3795 26.6309 27.6733C27.4867 28.2102 28.0582 29.158 28.0582 30.2389V45.5255ZM58.015 45.5249H47.0582V36.3943H58.015V45.5249Z" fill="black"/>
<path d="M52.7475 6.221C52.7478 6.221 52.7488 6.221 52.7488 6.221C53.2987 6.2207 53.8152 6.00665 54.2034 5.61887C54.5913 5.23108 54.805 4.71566 54.8044 4.16779C54.8035 3.03689 53.8809 2.1167 52.7454 2.1167C52.1958 2.117 51.6793 2.33106 51.2911 2.71914C50.9026 3.10723 50.6891 3.62265 50.6895 4.17113C50.6904 5.30142 51.6139 6.221 52.7475 6.221ZM52.152 3.57596C52.3107 3.41739 52.522 3.32977 52.7475 3.32977C53.2111 3.32977 53.5887 3.70633 53.589 4.169C53.5893 4.39306 53.5018 4.60408 53.3431 4.76265C53.1844 4.92122 52.9731 5.00884 52.7481 5.00884L52.7475 5.61523V5.00884C52.2839 5.00884 51.9061 4.63289 51.9058 4.17052C51.9058 3.94555 51.993 3.73453 52.152 3.57596Z" fill="black"/>
<path d="M24.3184 35.0981C23.7988 35.0981 23.376 35.5199 23.376 36.038C23.376 36.5562 23.7988 36.9782 24.3184 36.9782C24.8382 36.9782 25.2611 36.5565 25.2611 36.038C25.2611 35.5196 24.8379 35.0981 24.3184 35.0981Z" fill="black"/>
<path d="M52.6851 29.0427C52.3495 29.0427 52.0771 29.3144 52.0771 29.6491V31.9794C52.0771 32.3142 52.3495 32.5858 52.6851 32.5858C53.0211 32.5858 53.2931 32.3142 53.2931 31.9794V29.6491C53.2931 29.3144 53.0208 29.0427 52.6851 29.0427Z" fill="black"/>
<path d="M53.2931 24.989C53.2931 24.6542 53.0211 24.3826 52.6851 24.3826C52.3495 24.3826 52.0771 24.6542 52.0771 24.989V27.3193C52.0771 27.654 52.3495 27.9257 52.6851 27.9257C53.0211 27.9257 53.2931 27.654 53.2931 27.3193V24.989Z" fill="black"/>
<path d="M53.2931 20.3283C53.2931 19.9936 53.0211 19.7219 52.6851 19.7219C52.3495 19.7219 52.0771 19.9936 52.0771 20.3283V22.6586C52.0771 22.9934 52.3495 23.265 52.6851 23.265C53.0211 23.265 53.2931 22.9934 53.2931 22.6586V20.3283Z" fill="black"/>
<path d="M11.4543 10.3999C10.3811 10.3999 9.50806 11.271 9.50806 12.3412C9.50806 13.4115 10.3811 14.282 11.4543 14.282C12.5271 14.282 13.3999 13.4112 13.3999 12.3412C13.3999 11.2707 12.5271 10.3999 11.4543 10.3999ZM11.4543 13.0692C11.0518 13.0692 10.7241 12.7427 10.7241 12.3412C10.7241 11.9395 11.0518 11.6127 11.4543 11.6127C11.8568 11.6127 12.1839 11.9395 12.1839 12.3412C12.1839 12.743 11.8565 13.0692 11.4543 13.0692Z" fill="black"/>
<path d="M24.4399 29.1252C23.3667 29.1252 22.4937 29.996 22.4937 31.0666C22.4937 32.1368 23.3667 33.0073 24.4399 33.0073C25.5127 33.0073 26.3858 32.1365 26.3858 31.0666C26.3858 29.9966 25.513 29.1252 24.4399 29.1252ZM24.4399 31.7951C24.0374 31.7951 23.7097 31.4686 23.7097 31.0672C23.7097 30.6655 24.0374 30.3386 24.4399 30.3386C24.8424 30.3386 25.1698 30.6655 25.1698 31.0672C25.1698 31.4683 24.8424 31.7951 24.4399 31.7951Z" fill="black"/>
</svg>
