<svg width="60" height="57" viewBox="0 0 60 57" fill="none" xmlns="http://www.w3.org/2000/svg">
<path d="M57.9556 27.3711H49.8779V52.6226H57.9556V27.3711Z" fill="#FFCA49"/>
<path d="M42.2045 7.71875V53.4092H9.92562V7.71875H6.67139V56.2792H46.0202V7.71875H42.2045Z" fill="#4EB4ED"/>
<path d="M24.6845 8.67817C26.4046 8.67817 27.8045 7.29052 27.8045 5.58495C27.8045 3.87938 26.4046 2.49146 24.6845 2.49146C22.9643 2.49146 21.5645 3.87938 21.5645 5.58495C21.5645 7.2908 22.9643 8.67817 24.6845 8.67817ZM24.6845 3.59853C25.7893 3.59853 26.6882 4.48978 26.6882 5.58523C26.6882 6.6804 25.7893 7.57165 24.6845 7.57165C23.5796 7.57165 22.6807 6.6804 22.6807 5.58523C22.6807 4.48978 23.5796 3.59853 24.6845 3.59853Z" fill="black"/>
<path d="M18.3905 15.6579H17.7713L18.7489 13.1253C18.8591 12.84 18.7148 12.5198 18.4271 12.4105C18.1399 12.3018 17.8165 12.444 17.7062 12.7296L16.576 15.6579H11.6035C11.2955 15.6579 11.0454 15.9058 11.0454 16.2113V22.9406C11.0454 23.2461 11.2955 23.494 11.6035 23.494H18.3905C18.6986 23.494 18.9487 23.2461 18.9487 22.9406V16.2113C18.9487 15.9055 18.6989 15.6579 18.3905 15.6579ZM17.8324 22.3872H12.1617V16.7647H16.1488L14.8193 20.2085L13.655 17.6429C13.5283 17.364 13.197 17.2406 12.9169 17.3651C12.6356 17.4907 12.5102 17.8183 12.6367 18.097L14.3518 21.8759C14.4422 22.0751 14.6418 22.2024 14.8609 22.2024C14.8662 22.2024 14.8715 22.2024 14.877 22.2021C15.1025 22.1957 15.3015 22.0557 15.3824 21.8468L17.344 16.765H17.8324V22.3872Z" fill="black"/>
<path d="M18.3905 26.8833H11.6035C11.2955 26.8833 11.0454 27.1309 11.0454 27.4367V34.166C11.0454 34.4718 11.2955 34.7194 11.6035 34.7194H18.3905C18.6986 34.7194 18.9487 34.4718 18.9487 34.166V27.4367C18.9487 27.1312 18.6989 26.8833 18.3905 26.8833ZM17.8324 33.6126H12.1617V27.9901H17.8324V33.6126Z" fill="black"/>
<path d="M18.3905 37.9321H11.6035C11.2955 37.9321 11.0454 38.1798 11.0454 38.4855V45.2149C11.0454 45.5203 11.2955 45.7682 11.6035 45.7682H18.3905C18.6986 45.7682 18.9487 45.5203 18.9487 45.2149V38.4855C18.9487 38.1798 18.6989 37.9321 18.3905 37.9321ZM17.8324 44.6615H12.1617V39.0389H17.8324V44.6615Z" fill="black"/>
<path d="M59.1697 55.7612H57.3959V52.6226V52.5247V27.4804C57.3976 27.4624 57.4015 27.445 57.4015 27.4267C57.4015 27.4151 57.3967 27.4048 57.3959 27.3932V27.3711C57.3959 27.2136 57.3289 27.0722 57.2223 26.9715L53.2322 19.7657C53.1334 19.5875 52.9523 19.4857 52.7396 19.4788C52.5348 19.4799 52.3473 19.5922 52.2504 19.7715L48.3697 26.9762C48.2664 27.0767 48.2017 27.2164 48.2017 27.3714V52.525V52.6229V55.7618H45.1808V7.71881C45.1808 7.41333 44.931 7.16541 44.6226 7.16541H34.8945C34.8677 7.16541 34.8421 7.16956 34.8167 7.17316C34.4145 5.98944 33.2868 5.13333 31.9587 5.13333H30.0462C29.8637 2.35804 27.5285 0.155518 24.6839 0.155518C21.8394 0.155518 19.5041 2.35804 19.3216 5.13333H17.4091C16.0841 5.13333 14.9586 5.98557 14.5542 7.16541H5.27378C4.96568 7.16541 4.71564 7.41333 4.71564 7.71881V55.7615H0.6348C0.326707 55.7615 0.0766602 56.0092 0.0766602 56.3149C0.0766602 56.6204 0.326707 56.8683 0.6348 56.8683H13.6808C13.9888 56.8683 14.2389 56.6204 14.2389 56.3149C14.2389 56.0092 13.9888 55.7615 13.6808 55.7615H5.83192V8.27221H7.88336V52.9126C7.88336 53.2184 8.1334 53.466 8.4415 53.466H41.2749C41.583 53.466 41.833 53.2184 41.833 52.9126V8.27221H44.0642V55.7615H19.8214C19.5133 55.7615 19.2633 56.0092 19.2633 56.3149C19.2633 56.6204 19.5133 56.8683 19.8214 56.8683H59.1697C59.4778 56.8683 59.7278 56.6204 59.7278 56.3149C59.7278 56.0092 59.4781 55.7612 59.1697 55.7612ZM51.394 23.7115H54.1439L55.8638 26.8177H49.7209L51.394 23.7115ZM49.3182 53.176H56.2796V55.7258H49.3182V53.176ZM54.8084 51.9713V27.9801H56.2794V51.9713H54.8084ZM50.7892 27.9801V31.9646C50.7892 32.2703 51.0393 32.518 51.3474 32.518C51.6554 32.518 51.9055 32.2703 51.9055 31.9646V27.9801H53.6921V51.9713H51.9055V35.5652C51.9055 35.2598 51.6554 35.0118 51.3474 35.0118C51.0393 35.0118 50.7892 35.2598 50.7892 35.5652V51.9713H49.3182V27.9801H50.7892ZM52.7497 21.1943L53.5308 22.6049H51.9901L52.7497 21.1943ZM17.4094 6.24013H19.8789C20.0315 6.24013 20.1775 6.17815 20.2827 6.06858C20.3882 5.959 20.4435 5.81152 20.4365 5.66045L20.4312 5.57854C20.4289 5.547 20.4264 5.51545 20.4264 5.48363C20.4264 3.15604 22.3364 1.26231 24.6839 1.26231C27.0315 1.26231 28.9414 3.15604 28.9414 5.48363C28.9414 5.51379 28.9389 5.54395 28.9367 5.57384L28.9314 5.66238C28.9247 5.81318 28.9805 5.96011 29.0857 6.06941C29.1912 6.1787 29.3366 6.24013 29.4889 6.24013H31.9584C33.0066 6.24013 33.8592 7.08572 33.8592 8.125C33.8592 9.16428 33.0063 10.0099 31.9584 10.0099H17.4094C16.3612 10.0099 15.5084 9.16428 15.5084 8.125C15.5084 7.08544 16.3612 6.24013 17.4094 6.24013ZM40.717 18.1866H20.5294C20.2213 18.1866 19.9713 18.4345 19.9713 18.74C19.9713 19.0455 20.2213 19.2934 20.5294 19.2934H40.717V20.3081H34.39C34.0816 20.3081 33.8318 20.556 33.8318 20.8615C33.8318 21.1669 34.0816 21.4149 34.39 21.4149H40.717V29.347H20.5294C20.2213 29.347 19.9713 29.5949 19.9713 29.9004C19.9713 30.2059 20.2213 30.4538 20.5294 30.4538H40.717V31.4684H34.39C34.0816 31.4684 33.8318 31.7164 33.8318 32.0218C33.8318 32.3276 34.0816 32.5752 34.39 32.5752H40.717V40.2304H20.6223C20.3142 40.2304 20.0642 40.478 20.0642 40.7838C20.0642 41.0893 20.3142 41.3372 20.6223 41.3372H40.717V42.3518H34.4829C34.1748 42.3518 33.9248 42.5998 33.9248 42.9052C33.9248 43.2107 34.1748 43.4586 34.4829 43.4586H40.717V52.3592H8.99992V8.27221H14.3999C14.4781 9.85327 15.7958 11.1164 17.4094 11.1164H31.9587C33.5723 11.1164 34.8901 9.85327 34.9682 8.27221H40.7173L40.717 18.1866Z" fill="black"/>
</svg>
