<svg width="68" height="57" viewBox="0 0 68 57" fill="none" xmlns="http://www.w3.org/2000/svg">
<g clip-path="url(#clip0)">
<path d="M7.12046 19.4363H0.261475V41.6188C0.261475 43.5129 1.79691 45.0483 3.69097 45.0483H3.69097C5.58503 45.0483 7.12046 43.5129 7.12046 41.6188V19.4363Z" fill="#FFCA49"/>
<path d="M50.0725 24.1799H35.7942V33.7756H50.0725V24.1799Z" fill="#FFCA49"/>
<path d="M36.1265 43.531H21.8481V53.1267H36.1265V43.531Z" fill="#4EB4ED"/>
<path d="M48.595 7.02563H21.1545V13.3483H48.595V7.02563Z" fill="#4EB4ED"/>
<path d="M61.947 15.6509H56.3477V51.1936H61.947V15.6509Z" fill="#FFCA49"/>
<path d="M59.1473 56.3102L61.947 51.1936H56.3477L59.1473 56.3102Z" fill="#4EB4ED"/>
<path d="M61.947 13.0436V15.651H56.3477V13.0436C56.3477 12.2686 56.66 11.5717 57.1707 11.061C57.2789 10.9529 57.393 10.8567 57.5131 10.7727C57.9698 10.4362 58.5345 10.2439 59.1473 10.2439C59.7601 10.2439 60.3308 10.4422 60.7875 10.7787C61.4904 11.2832 61.947 12.1064 61.947 13.0436Z" fill="#4EB4ED"/>
<path d="M16.7331 56.833H51.9342C53.2119 56.833 54.2514 55.7938 54.2514 54.5161V2.48446C54.2514 1.20674 53.2119 0.166992 51.9342 0.166992H11.5096C9.33027 0.166992 7.55719 1.94007 7.55719 4.11965V17.954H1.22093C0.932145 17.954 0.697998 18.1879 0.697998 18.4769V40.6593C0.697998 42.7966 2.41813 44.6108 4.67364 44.6108V44.6114C8.73009 44.4314 13.1987 44.3403 14.4161 44.4706V54.5161C14.4161 55.7938 15.4556 56.833 16.7331 56.833ZM51.9342 1.21286C52.6351 1.21286 53.2056 1.78329 53.2056 2.48446V54.5161C53.2056 55.2167 52.6351 55.7871 51.9342 55.7871H16.7331C16.0322 55.7871 15.462 55.2167 15.462 54.5161V44.089C15.462 32.3166 15.462 15.8975 15.462 4.11965C15.462 2.96947 14.9652 1.93586 14.1787 1.21286H51.9342ZM1.74387 40.6593V18.9998H7.55719C7.55719 24.7412 7.55719 36.128 7.55719 40.6593C7.55719 42.1124 6.47328 43.4865 4.64517 43.5658C3.04483 43.5629 1.74387 42.2605 1.74387 40.6593ZM7.4428 43.4541C8.15922 42.7383 8.60306 41.7497 8.60306 40.6593C8.60306 36.3648 8.60306 23.6538 8.60306 18.4769V4.11965C8.60306 2.51663 9.90683 1.21286 11.5096 1.21286C13.1124 1.21286 14.4161 2.51663 14.4161 4.11965C14.4161 16.2372 14.4161 31.3985 14.4161 43.445C13.5087 43.353 11.5886 43.3095 7.4428 43.4541Z" fill="black" stroke="black" stroke-width="0.2"/>
<path d="M48.4729 50.928H31.0288V51.9739H48.4729V50.928Z" fill="black" stroke="black" stroke-width="0.2"/>
<path d="M48.4729 44.5364H31.0288V45.5822H48.4729V44.5364Z" fill="black" stroke="black" stroke-width="0.2"/>
<path d="M48.4729 38.1443H31.0288V39.1902H48.4729V38.1443Z" fill="black" stroke="black" stroke-width="0.2"/>
<path d="M48.4729 31.7524H31.0288V32.7983H48.4729V31.7524Z" fill="black" stroke="black" stroke-width="0.2"/>
<path d="M48.4729 25.3608H31.0288V26.4067H48.4729V25.3608Z" fill="black" stroke="black" stroke-width="0.2"/>
<path d="M48.4729 18.9688H31.0288V20.0146H48.4729V18.9688Z" fill="black" stroke="black" stroke-width="0.2"/>
<path d="M27.3446 50.928H20.1951V51.9739H27.3446V50.928Z" fill="black" stroke="black" stroke-width="0.2"/>
<path d="M27.3446 44.5364H20.1951V45.5822H27.3446V44.5364Z" fill="black" stroke="black" stroke-width="0.2"/>
<path d="M27.3446 38.1443H20.1951V39.1902H27.3446V38.1443Z" fill="black" stroke="black" stroke-width="0.2"/>
<path d="M27.3446 31.7524H20.1951V32.7983H27.3446V31.7524Z" fill="black" stroke="black" stroke-width="0.2"/>
<path d="M27.3446 25.3608H20.1951V26.4067H27.3446V25.3608Z" fill="black" stroke="black" stroke-width="0.2"/>
<path d="M27.3446 18.9688H20.1951V20.0146H27.3446V18.9688Z" fill="black" stroke="black" stroke-width="0.2"/>
<path d="M20.1951 12.9116H47.6354C47.9242 12.9116 48.1583 12.6777 48.1583 12.3886V6.0659C48.1583 5.77686 47.9242 5.54297 47.6354 5.54297H20.1951C19.9063 5.54297 19.6721 5.77686 19.6721 6.0659V12.3886C19.6721 12.6777 19.9063 12.9116 20.1951 12.9116ZM20.718 6.58884H47.1125V11.8657H20.718V6.58884Z" fill="black" stroke="#4EB4ED" stroke-width="0.2"/>
<path d="M66.6742 14.1116H63.4863V12.027C63.4863 9.29375 60.3465 7.76589 58.2296 9.32756C57.4029 9.90874 56.8411 10.9041 56.8411 12.027C56.8411 23.083 56.8411 39.1511 56.8411 50.1773C56.8411 50.1813 56.8432 50.1845 56.8434 50.1884C56.8491 50.4586 56.896 50.3409 59.705 55.5451C59.7969 55.7126 59.9728 55.8168 60.1638 55.8168C60.3551 55.8168 60.5307 55.7126 60.6226 55.5451C63.4623 50.2837 63.4784 50.4539 63.484 50.1884C63.4841 50.1845 63.4863 50.1813 63.4863 50.1773V15.1575H66.1513V27.7662H67.1971V14.6345C67.1971 14.3455 66.963 14.1116 66.6742 14.1116ZM57.8869 12.027C57.8869 11.2497 58.2789 10.5707 58.8399 10.1768C60.3013 9.10125 62.4404 10.159 62.4404 12.027V14.1116H57.8869V12.027ZM62.4404 49.6544H57.8869V15.1575H62.4404V49.6544ZM60.1638 54.2045L58.2462 50.7003H62.0811L60.1638 54.2045Z" fill="black" stroke="black" stroke-width="0.2"/>
</g>
<defs>
<clipPath id="clip0">
<rect width="67.4587" height="57" fill="white"/>
</clipPath>
</defs>
</svg>
