<svg width="58" height="57" viewBox="0 0 58 57" fill="none" xmlns="http://www.w3.org/2000/svg">
<path d="M43.0296 34.7233L38.5578 27.4351H38.1218V27.4028H7.81984V27.4351H7.59034L3.07959 34.7233H7.81984V56.3197H38.1218V37.3433V34.7233H43.0296Z" fill="#FFCA49"/>
<path d="M52.9697 23.8943H32.9072V25.7518H52.9697V23.8943Z" fill="#4EB4ED"/>
<path d="M41.9483 12.4933L38.7621 6.27856L35.5688 12.4933H37.8076V21.661H39.7161V12.4933H41.9483Z" fill="#4EB4ED"/>
<path d="M50.3028 12.4933L47.1098 6.27856L43.9233 12.4933H46.1553V21.661H48.0638V12.4933H50.3028Z" fill="#4EB4ED"/>
<path d="M13.0291 24.6206C13.1204 24.7682 13.2809 24.858 13.4531 24.858C13.6256 24.858 13.7859 24.7684 13.8771 24.6206L18.0431 17.8876C18.1894 17.6512 18.1181 17.3403 17.8836 17.1927C17.6496 17.0447 17.3409 17.1168 17.1949 17.3536L13.9531 22.5926V0.514679C13.9531 0.236236 13.7291 0.0102539 13.4531 0.0102539C13.1771 0.0102539 12.9531 0.236236 12.9531 0.514679V22.5944L9.70761 17.3534C9.56111 17.1168 9.25261 17.0452 9.01861 17.1927C8.78461 17.3403 8.71311 17.6515 8.85936 17.8878L13.0291 24.6206Z" fill="black"/>
<path d="M52.3569 25.7521V23.8946C52.3569 23.6161 52.1332 23.3901 51.8569 23.3901H31.7947C31.5187 23.3901 31.2947 23.6161 31.2947 23.8946V25.7521C31.2947 26.0305 31.5187 26.2565 31.7947 26.2565H51.8569C52.1329 26.2565 52.3569 26.0305 52.3569 25.7521ZM51.3569 25.2477H32.2947V24.399H51.3569V25.2477Z" fill="black"/>
<path d="M34.4588 12.9976H36.1936V21.6608C36.1936 21.9392 36.4176 22.1652 36.6936 22.1652H38.6023C38.8783 22.1652 39.1023 21.9392 39.1023 21.6608V12.9976H40.8346C41.0091 12.9976 41.1711 12.9057 41.2616 12.7554C41.3523 12.6049 41.3588 12.4177 41.2786 12.2613L38.0923 6.04632C38.0063 5.87885 37.8353 5.77368 37.6483 5.77368C37.4616 5.77368 37.2901 5.87885 37.2043 6.04607L34.0148 12.2611C33.9348 12.4175 33.9411 12.6049 34.0316 12.7552C34.1223 12.9057 34.2843 12.9976 34.4588 12.9976ZM37.6481 7.37573L40.0131 11.9887H38.6023C38.3261 11.9887 38.1023 12.2147 38.1023 12.4931V21.1564H37.1936V12.4931C37.1936 12.2147 36.9698 11.9887 36.6936 11.9887H35.2808L37.6481 7.37573Z" fill="black"/>
<path d="M42.8096 12.9976H44.5436V21.6608C44.5436 21.9392 44.7674 22.1652 45.0436 22.1652H46.9501C47.2264 22.1652 47.4501 21.9392 47.4501 21.6608V12.9976H49.1891C49.3636 12.9976 49.5256 12.9057 49.6164 12.7552C49.7069 12.6046 49.7134 12.4172 49.6329 12.2611L46.4396 6.04607C46.3536 5.8786 46.1826 5.77368 45.9959 5.77368H45.9956C45.8089 5.77368 45.6376 5.87885 45.5519 6.04632L42.3656 12.2613C42.2856 12.4177 42.2919 12.6049 42.3826 12.7554C42.4734 12.9057 42.6351 12.9976 42.8096 12.9976ZM45.9964 7.37523L48.3666 11.9887H46.9499C46.6739 11.9887 46.4499 12.2147 46.4499 12.4931V21.1564H45.5434V12.4931C45.5434 12.2147 45.3194 11.9887 45.0434 11.9887H43.6311L45.9964 7.37523Z" fill="black"/>
<path d="M57.375 4.05131H55.6295C55.5228 4.05131 55.4245 4.08586 55.3433 4.14311V2.84573C55.3433 2.56729 55.1193 2.34131 54.8433 2.34131H28.8062C28.5303 2.34131 28.3062 2.56729 28.3062 2.84573V26.9308H18.7345H18.6628H5.9785H5.9205C5.74825 26.9308 5.58775 27.0203 5.4965 27.1678L0.9855 34.456C0.88925 34.6116 0.88425 34.8076 0.97225 34.9678C1.06025 35.1282 1.22775 35.2275 1.4095 35.2275H5.6495V55.9806H0.625C0.34875 55.9806 0.125 56.2066 0.125 56.485C0.125 56.7637 0.34875 56.9894 0.625 56.9894H27.9045C28.1805 56.9894 28.4045 56.7637 28.4045 56.485C28.4045 56.2066 28.1805 55.9806 27.9045 55.9806H18.9535V29.2171L21.668 34.941C21.751 35.1161 21.9262 35.2278 22.119 35.2278H35.9543V55.9808H33.7385C33.4622 55.9808 33.2385 56.2068 33.2385 56.4853C33.2385 56.7639 33.4622 56.9897 33.7385 56.9897H43.9787C44.255 56.9897 44.4787 56.7639 44.4787 56.4853C44.4787 56.2068 44.255 55.9808 43.9787 55.9808H36.9543V35.2278H41.3595C41.541 35.2278 41.7082 35.1287 41.7962 34.969C41.8848 34.8091 41.88 34.6136 41.7845 34.458L40.8232 32.8915H57.375C57.651 32.8915 57.875 32.6658 57.875 32.3871V4.55573C57.875 4.27704 57.6512 4.05131 57.375 4.05131ZM2.31125 34.2189L5.64975 28.8251L6.19775 27.9396H6.64975H17.9065L14.6338 34.2187H6.64975H5.64975H2.31125V34.2189ZM14.0263 55.9808H9.6375V48.673H14.0263V55.9808ZM17.9535 55.9808H15.0263V48.1685C15.0263 47.8901 14.8023 47.6641 14.5263 47.6641H9.1375C8.8615 47.6641 8.6375 47.8901 8.6375 48.1685V55.9808H6.64975V35.2278H14.936C15.1218 35.2278 15.2922 35.1239 15.3787 34.9582L17.9538 30.0178V55.9808H17.9535ZM29.3063 3.35016H54.343V29.5467H38.771L37.3125 27.1696C37.2215 27.021 37.0605 26.9308 36.8875 26.9308H36.6253H29.3063V3.35016ZM36.954 34.2189H35.954H22.4338L19.456 27.9399H35.954H36.6087L36.954 28.5023L37.595 29.547L38.2142 30.5558L39.0285 31.8827L39.6475 32.8915L40.4622 34.2192H36.954V34.2189ZM56.875 31.8824H40.2043L39.39 30.5555H54.843C55.119 30.5555 55.343 30.3298 55.343 30.0511V4.9681C55.4242 5.02561 55.5228 5.05991 55.6292 5.05991H56.8747V31.8824H56.875Z" fill="black"/>
</svg>
