<svg width="57" height="57" viewBox="0 0 57 57" fill="none" xmlns="http://www.w3.org/2000/svg">
<path d="M43.9284 34.064C37.7796 34.064 32.7842 39.0515 32.7842 45.2082C32.7842 51.365 37.7796 56.3525 43.9284 56.3525C50.0852 56.3525 55.0727 51.365 55.0727 45.2082C55.0727 39.0515 50.0852 34.064 43.9284 34.064ZM43.9281 54.1565C38.994 54.1565 34.98 50.1424 34.98 45.2084C34.98 40.2743 38.994 36.2603 43.9281 36.2603C48.8622 36.2603 52.8769 40.2743 52.8769 45.2084C52.8769 50.1424 48.8622 54.1565 43.9281 54.1565Z" fill="#4EB4ED"/>
<path d="M43.3725 44.8789C43.3725 45.4008 42.9455 45.8397 42.4118 45.8397C41.8899 45.8397 41.4629 45.4008 41.4629 44.8789C41.4629 44.3452 41.8899 43.9182 42.4118 43.9182C42.9455 43.9182 43.3725 44.3452 43.3725 44.8789Z" fill="#4EB4ED"/>
<path d="M21.9151 15.3176H16.5049V20.7233H21.9151V15.3176Z" fill="#FFCA49"/>
<path d="M55 6H4V11H55V6Z" fill="#4EB4ED"/>
<path d="M52.3233 15.3176H46.9131V20.7233H52.3233V15.3176Z" fill="#FFCA49"/>
<path d="M42.21 15.5H36.7998V20.9056H42.21V15.5Z" fill="#FFCA49"/>
<path d="M31.9097 15.5H26.4995V20.9056H31.9097V15.5Z" fill="#FFCA49"/>
<path d="M11.9102 23.3H6.5V28.7057H11.9102V23.3Z" fill="#FFCA49"/>
<path d="M31.502 44.358C31.502 50.7412 36.6949 55.934 43.078 55.934C49.461 55.934 54.654 50.7412 54.654 44.358C54.654 37.9748 49.461 32.782 43.078 32.782C36.6949 32.782 31.502 37.9748 31.502 44.358ZM43.078 33.6456C48.9849 33.6456 53.7904 38.4513 53.7904 44.358C53.7904 50.2647 48.9849 55.0704 43.078 55.0704C37.171 55.0704 32.3656 50.2647 32.3656 44.358C32.3656 38.4513 37.171 33.6456 43.078 33.6456Z" fill="black" stroke="black" stroke-width="0.2"/>
<path d="M43.0778 53.7381C48.2501 53.7381 52.4582 49.53 52.4582 44.3578C52.4582 39.1857 48.2501 34.978 43.0778 34.978C37.9057 34.978 33.6978 39.1857 33.6978 44.3578C33.6978 49.53 37.9057 53.7381 43.0778 53.7381ZM38.4552 37.2155L38.8129 37.835L39.561 37.4032L39.2032 36.7834C40.2455 36.2481 41.411 35.9259 42.646 35.8635V36.5767H43.5096V35.8635C44.7445 35.9259 45.91 36.248 46.9523 36.7833L46.5943 37.4032L47.3424 37.835L47.7003 37.2153C48.7074 37.8692 49.5666 38.7284 50.2206 39.7353L49.6006 40.0932L50.0324 40.8413L50.6527 40.4833C51.1881 41.5255 51.5103 42.6911 51.5727 43.926H50.8592V44.7897H51.5727C51.5103 46.0247 51.1881 47.1904 50.6526 48.2328L50.0324 47.8748L49.6006 48.6229L50.2205 48.9807C49.5665 49.9876 48.7073 50.8468 47.7002 51.5008L47.3424 50.8811L46.5943 51.3129L46.9522 51.9327C45.91 52.468 44.7445 52.7902 43.5096 52.8526V52.1394H42.646V52.8526C41.411 52.7902 40.2455 52.468 39.2032 51.9326L39.561 51.3129L38.8129 50.8811L38.4553 51.5006C37.4483 50.8466 36.5892 49.9874 35.9353 48.9805L36.5548 48.6229L36.1229 47.8748L35.5032 48.2325C34.9678 47.1902 34.6457 46.0246 34.5833 44.7897H35.2962V43.926H34.5833C34.6456 42.6912 34.9678 41.5257 35.5031 40.4835L36.1229 40.8413L36.5548 40.0932L35.9351 39.7356C36.5891 38.7286 37.4483 37.8694 38.4552 37.2155Z" fill="black" stroke="black" stroke-width="0.2"/>
<path d="M43.0766 45.7532C43.3035 45.7532 43.5148 45.6934 43.7043 45.5967L45.5803 47.4653L46.1896 46.853L44.3144 44.9852C44.4101 44.7965 44.4691 44.5864 44.4691 44.3607C44.4691 43.7451 44.065 43.2278 43.5102 43.0443V38.5881H42.6465V43.0444C42.0965 43.2279 41.6958 43.7452 41.6958 44.3607C41.6958 45.1287 42.3153 45.7532 43.0766 45.7532ZM43.0766 43.8319C43.3731 43.8319 43.6055 44.0643 43.6055 44.3607C43.6055 44.6521 43.3683 44.8896 43.0766 44.8896C42.7962 44.8896 42.5594 44.6475 42.5594 44.3607C42.5594 44.0694 42.7914 43.8319 43.0766 43.8319Z" fill="black" stroke="black" stroke-width="0.2"/>
<path d="M55.1963 11.1846C55.1963 11.1839 55.1967 11.1833 55.1967 11.1826V4.50708C55.1967 4.2684 55.0034 4.07526 54.7649 4.07526H51.8791C51.6628 2.15008 50.0216 0.647705 48.0333 0.647705C46.0516 0.647705 44.4155 2.15008 44.1999 4.07526H42.1094C41.8932 2.15008 40.2519 0.647705 38.2637 0.647705C36.2819 0.647705 34.6459 2.15008 34.4303 4.07526H32.34C32.1237 2.15008 30.4824 0.647705 28.4942 0.647705C26.5125 0.647705 24.8764 2.15008 24.6608 4.07526H22.5705C22.3542 2.15008 20.713 0.647705 18.7247 0.647705C16.743 0.647705 15.1069 2.15008 14.8913 4.07526H12.8008C12.5846 2.15008 10.9433 0.647705 8.95507 0.647705C6.97333 0.647705 5.33725 2.15008 5.12165 4.07526H2.23595C2.12146 4.07526 2.01161 4.12081 1.93064 4.20177C1.84968 4.28274 1.80413 4.39238 1.80413 4.50708L1.80434 11.1811C1.80434 11.1822 1.80371 11.1831 1.80371 11.1842V36.7716C1.80371 36.7811 1.80853 36.7891 1.80914 36.7985C1.80759 36.9131 1.84796 37.0265 1.93212 37.1106L9.48675 44.6549C9.56547 44.7382 9.67527 44.7914 9.79888 44.7914H30.2934V43.9278H10.2324V36.8049C10.2324 36.8019 10.2308 36.7995 10.2307 36.7965V36.7716C10.2307 36.5329 10.0374 36.3398 9.79888 36.3398H2.66735V11.6161H54.3327V39.1765H55.1963V11.1846ZM48.0333 1.51134C49.5443 1.51134 50.7951 2.62789 51.0064 4.07526H45.0726C45.283 2.62789 46.5286 1.51134 48.0333 1.51134ZM38.2637 1.51134C39.7746 1.51134 41.0254 2.62789 41.2367 4.07526H35.3029C35.5133 2.62789 36.7589 1.51134 38.2637 1.51134ZM28.4942 1.51134C30.0051 1.51134 31.256 2.62789 31.4673 4.07526H25.5334C25.7438 2.62789 26.9894 1.51134 28.4942 1.51134ZM18.7247 1.51134C20.2357 1.51134 21.4865 2.62789 21.6978 4.07526H15.764C15.9744 2.62789 17.22 1.51134 18.7247 1.51134ZM8.95507 1.51134C10.466 1.51134 11.7168 2.62789 11.9281 4.07526H5.9943C6.2047 2.62789 7.45029 1.51134 8.95507 1.51134ZM11.9281 4.9389C11.7168 6.38622 10.466 7.5024 8.95507 7.5024V8.36603C10.9433 8.36603 12.5846 6.86403 12.8008 4.9389H21.6978C21.4865 6.38622 20.2357 7.5024 18.7247 7.5024V8.36603C20.713 8.36603 22.3542 6.86403 22.5705 4.9389H31.4673C31.2559 6.38622 30.0051 7.5024 28.4942 7.5024V8.36603C30.4824 8.36603 32.1237 6.86403 32.34 4.9389H41.2367C41.0254 6.38622 39.7746 7.5024 38.2637 7.5024V8.36603C40.2519 8.36603 41.8932 6.86403 42.1094 4.9389H51.0064C50.7951 6.38622 49.5443 7.5024 48.0333 7.5024V8.36603C50.0216 8.36603 51.6628 6.86403 51.8791 4.9389H54.3331V10.7507H2.66798L2.66777 4.9389H11.9281ZM9.36707 37.2367V43.3146L3.28071 37.2367H9.36707Z" fill="black" stroke="black" stroke-width="0.2"/>
<path d="M21.4965 14.4672C21.4965 14.2285 21.3031 14.0354 21.0646 14.0354H15.6545C15.416 14.0354 15.2227 14.2285 15.2227 14.4672V19.873C15.2227 20.1116 15.416 20.3048 15.6545 20.3048H21.0646C21.3031 20.3048 21.4965 20.1116 21.4965 19.873V14.4672ZM20.6328 19.4411H16.0863V14.899H20.6328V19.4411Z" fill="black" stroke="black" stroke-width="0.2"/>
<path d="M31.2009 14.0354H25.7907C25.5522 14.0354 25.3589 14.2285 25.3589 14.4672V19.873C25.3589 20.1116 25.5522 20.3048 25.7907 20.3048H31.2009C31.4393 20.3048 31.6327 20.1116 31.6327 19.873V14.4672C31.6327 14.2285 31.4393 14.0354 31.2009 14.0354ZM30.7691 19.4411H26.2225V14.899H30.7691V19.4411Z" fill="black" stroke="black" stroke-width="0.2"/>
<path d="M35.9269 20.3048H41.3371C41.5756 20.3048 41.7689 20.1116 41.7689 19.873V14.4672C41.7689 14.2285 41.5756 14.0354 41.3371 14.0354H35.9269C35.6885 14.0354 35.4951 14.2285 35.4951 14.4672V19.873C35.4951 20.1116 35.6885 20.3048 35.9269 20.3048ZM36.3588 14.899H40.9053V19.4411H36.3588V14.899Z" fill="black" stroke="black" stroke-width="0.2"/>
<path d="M46.0627 20.3048H51.4731C51.7115 20.3048 51.9049 20.1116 51.9049 19.873V14.4672C51.9049 14.2285 51.7115 14.0354 51.4731 14.0354H46.0627C45.8242 14.0354 45.6309 14.2285 45.6309 14.4672V19.873C45.6309 20.1116 45.8242 20.3048 46.0627 20.3048ZM46.4945 14.899H51.0412V19.4411H46.4945V14.899Z" fill="black" stroke="black" stroke-width="0.2"/>
<path d="M5.51873 21.9329C5.28026 21.9329 5.08691 22.126 5.08691 22.3647V27.77C5.08691 28.0087 5.28026 28.2018 5.51873 28.2018H10.9289C11.1674 28.2018 11.3607 28.0087 11.3607 27.77V22.3647C11.3607 22.126 11.1674 21.9329 10.9289 21.9329H5.51873ZM10.4971 27.3382H5.95055V22.7965H10.4971V27.3382Z" fill="black" stroke="black" stroke-width="0.2"/>
<path d="M21.4965 22.3647C21.4965 22.126 21.3031 21.9329 21.0646 21.9329H15.6545C15.416 21.9329 15.2227 22.126 15.2227 22.3647V27.77C15.2227 28.0087 15.416 28.2018 15.6545 28.2018H21.0646C21.3031 28.2018 21.4965 28.0087 21.4965 27.77V22.3647ZM20.6328 27.3382H16.0863V22.7965H20.6328V27.3382Z" fill="black" stroke="black" stroke-width="0.2"/>
<path d="M25.3589 27.77C25.3589 28.0087 25.5522 28.2018 25.7907 28.2018H31.2009C31.4393 28.2018 31.6327 28.0087 31.6327 27.77V22.3647C31.6327 22.126 31.4393 21.9329 31.2009 21.9329H25.7907C25.5522 21.9329 25.3589 22.126 25.3589 22.3647V27.77ZM26.2225 22.7965H30.7691V27.3382H26.2225V22.7965Z" fill="black" stroke="black" stroke-width="0.2"/>
<path d="M35.4951 27.77C35.4951 28.0087 35.6885 28.2018 35.9269 28.2018H41.3371C41.5756 28.2018 41.7689 28.0087 41.7689 27.77V22.3647C41.7689 22.126 41.5756 21.9329 41.3371 21.9329H35.9269C35.6885 21.9329 35.4951 22.126 35.4951 22.3647V27.77ZM36.3588 22.7965H40.9053V27.3382H36.3588V22.7965Z" fill="black" stroke="black" stroke-width="0.2"/>
<path d="M45.6309 27.77C45.6309 28.0087 45.8242 28.2018 46.0627 28.2018H51.4731C51.7115 28.2018 51.9049 28.0087 51.9049 27.77V22.3647C51.9049 22.126 51.7115 21.9329 51.4731 21.9329H46.0627C45.8242 21.9329 45.6309 22.126 45.6309 22.3647V27.77ZM46.4945 22.7965H51.0412V27.3382H46.4945V22.7965Z" fill="black" stroke="black" stroke-width="0.2"/>
<path d="M21.0646 29.8301H15.6545C15.416 29.8301 15.2227 30.0232 15.2227 30.2619V35.6672C15.2227 35.9059 15.416 36.099 15.6545 36.099H21.0646C21.3031 36.099 21.4965 35.9059 21.4965 35.6672V30.2619C21.4965 30.0232 21.3031 29.8301 21.0646 29.8301ZM20.6328 35.2354H16.0863V30.6937H20.6328V35.2354Z" fill="black" stroke="black" stroke-width="0.2"/>
<path d="M25.3589 35.6672C25.3589 35.9059 25.5522 36.099 25.7907 36.099H31.2009C31.4393 36.099 31.6327 35.9059 31.6327 35.6672V30.2619C31.6327 30.0232 31.4393 29.8301 31.2009 29.8301H25.7907C25.5522 29.8301 25.3589 30.0232 25.3589 30.2619V35.6672ZM26.2225 30.6937H30.7691V35.2354H26.2225V30.6937Z" fill="black" stroke="black" stroke-width="0.2"/>
</svg>
